<svg id="Layer_1" data-name="Layer 1" xmlns="http://www.w3.org/2000/svg" viewBox="0 0 537.38 532.48"><defs><style>.cls-1{font-size:51px;}.cls-1,.cls-2{fill:#fff;font-family:AceLift-Regular, Ace Lift;}.cls-2{font-size:37px;}</style></defs><title>Circle II</title><text class="cls-1" transform="translate(33.42 161.01) rotate(104.42)">W</text><text class="cls-1" transform="translate(14.62 247.34) rotate(88.02)">E</text><text class="cls-1" transform="translate(16.98 303.87) rotate(74.72)">B</text><text class="cls-1" transform="translate(34.52 361.07) rotate(65.08)"> </text><text class="cls-1" transform="translate(44.02 384.31) rotate(55.28)">D</text><text class="cls-1" transform="translate(81.02 435.73) rotate(41.83)">E</text><text class="cls-1" transform="translate(123.41 473.07) rotate(28.7)">S</text><text class="cls-1" transform="matrix(0.94, 0.35, -0.35, 0.94, 175.43, 499.45)">I</text><text class="cls-1" transform="translate(190.85 506.62) rotate(11.27)">G</text><text class="cls-1" transform="translate(253.75 518.31) rotate(-3.07)">N</text><text class="cls-1" transform="translate(315.86 512.99) rotate(-12.93)"> </text><text class="cls-1" transform="matrix(0.92, -0.38, 0.38, 0.92, 340.48, 508.45)">B</text><text class="cls-1" transform="translate(395.65 484.94) rotate(-36.12)">A</text><text class="cls-1" transform="matrix(0.65, -0.76, 0.76, 0.65, 443.73, 449.14)">S</text><text class="cls-1" transform="translate(480.26 403.71) rotate(-57.85)">I</text><text class="cls-1" transform="translate(490.31 390.16) rotate(-66.48)">C</text><text class="cls-1" transform="translate(514.23 333.11) rotate(-80.38)">S</text><text class="cls-2" transform="translate(503.92 167.54) rotate(-116.95)">P</text><text class="cls-2" transform="matrix(-0.58, -0.81, 0.81, -0.58, 487.19, 134.19)">A</text><text class="cls-2" transform="matrix(-0.71, -0.7, 0.7, -0.71, 461.98, 99.17)">R</text><text class="cls-2" transform="matrix(-0.82, -0.58, 0.58, -0.82, 430.8, 68.61)">S</text><text class="cls-2" transform="translate(396.08 44.25) rotate(-154.85)">O</text><text class="cls-2" transform="matrix(-0.97, -0.26, 0.26, -0.97, 353.97, 24.85)">N</text><text class="cls-2" transform="translate(310.53 13.77) rotate(-175.08)">S</text><text class="cls-2" transform="translate(269.32 11.03) rotate(178.46)"> </text><text class="cls-2" transform="matrix(-0.99, 0.14, -0.14, -0.99, 252.56, 10.85)">A</text><text class="cls-2" transform="translate(208.91 16.49) rotate(159.79)">W</text><text class="cls-2" transform="translate(152.89 38.95) rotate(150.63)">1</text><text class="cls-2" transform="translate(134.8 48.8) rotate(144.39)">8</text></svg>