<svg id="Layer_1" data-name="Layer 1" xmlns="http://www.w3.org/2000/svg" viewBox="0 0 197.7 218.4"><defs><style>.cls-1{fill:#fff;}</style></defs><path class="cls-1" d="M240.45,136.65q1.65-3.45,3.75-7.05a.27.27,0,0,0,.3-.3q0-.6.3-.6v2.1a.27.27,0,0,0,.3.3q.6,0,.6.3a.86.86,0,0,0,.3.6q0,.3.15.3t.15.3l3.6,8.1a1.33,1.33,0,0,0,.15.6,1.33,1.33,0,0,1,.15.6,8.19,8.19,0,0,0,4.05,3q2.55.9,2.55,4.5a19.33,19.33,0,0,1-.15,2.4,4.8,4.8,0,0,1-.75,2.1,6.44,6.44,0,0,0-1.2,1.5l-.9.9h-2.4q-.3,0-.3.6v.6a53.05,53.05,0,0,0,6,17.7q.9.9,1.2.9l8.7-7.8q0-.3,2.85-2t4.35-2.55a14,14,0,0,1,5.4-2q3-.45,5.4-.75h.3a16.42,16.42,0,0,1,10.8,4.35,13.2,13.2,0,0,1,5.1,10.35,10,10,0,0,1-4.2,8.1q-.3.3-.45.3t-.45.3a.27.27,0,0,1-.3.3,2.46,2.46,0,0,0-1.5.9,6.13,6.13,0,0,1-1.95.3H290.7a11.15,11.15,0,0,1-2.7-.3,21.27,21.27,0,0,1-2.7-.9q-.9-1.5-1.5-2.55a5.75,5.75,0,0,1-.6-2.85,5.56,5.56,0,0,1,.75-3,16,16,0,0,1,2.25-2.7v-.3q-.3-.3-.45-.3t-.45-.3h-2.1a13.42,13.42,0,0,0-6.6,1.5,6.53,6.53,0,0,0-2.55,1.5,40.23,40.23,0,0,0-3.9,3.45l-3.6,3.6q-1.65,1.65-1.65,2.25a7.78,7.78,0,0,0,1.35,3.75,21.79,21.79,0,0,0,3.3,4.2,27.51,27.51,0,0,0,4.2,3.45,7.29,7.29,0,0,0,3.75,1.5q.6,0,1.2-2.85a5.44,5.44,0,0,1,3.6-4.05h1.8a7.61,7.61,0,0,1,3.9,1.05,4,4,0,0,1,1.8,3.75q2.4,1.8,5.1,3.75a24.46,24.46,0,0,0,6,3.15q1.2.6,1.2.9a.53.53,0,0,1-.6.6,20.33,20.33,0,0,0-4.65,1.8q-2.25,1.2-4.65,2.4a2.42,2.42,0,0,1-1.05.3q-.45,0-.75.6a17.45,17.45,0,0,0-.75,2.85q-.15,1-1.95,1.95a2.3,2.3,0,0,0-.9.3,2.66,2.66,0,0,1-1.2.3h-3.9l-.3-.3q-2.4-1.8-2.4-2.4v-3.6a11,11,0,0,0-3.6.75,5.47,5.47,0,0,0-3,2.25l-7.2,9.6a11.65,11.65,0,0,1-2.25,3.75,5.92,5.92,0,0,0-1.65,3.75,5.33,5.33,0,0,0,.6,2.4l6.6,10.2a10.33,10.33,0,0,0,4.8,4.35,17.33,17.33,0,0,0,6.3,1H282a7.11,7.11,0,0,0,4.95-3.15,10,10,0,0,0,1.65-5.55,5,5,0,0,0-2-4.2,7,7,0,0,0-4.35-1.5,4.07,4.07,0,0,0-3,1.2l-1.2,1.2V240a.86.86,0,0,1-.6.3h-.3a4.35,4.35,0,0,1-4.2-2.25,9.76,9.76,0,0,1-1.2-4.65,11.81,11.81,0,0,1,12.3-12.3,14.65,14.65,0,0,1,7.8,2.7l.3-.3a3.62,3.62,0,0,1,.45-1.2,3.62,3.62,0,0,0,.45-1.2,35.6,35.6,0,0,1,3.3-3.45,6,6,0,0,1,4.2-1.65,6.34,6.34,0,0,1,3,1.05,3,3,0,0,1,1.8,2.55h-.9q-1.2,0-1.2.3v1.2a8.6,8.6,0,0,0,.9,3.9l1.8,3.6h.3l.3-.3q.3-1.2.9-4.8a14.47,14.47,0,0,1,1.2-4.5v-.6a.27.27,0,0,1,.3-.3q0-.9.3-4.2t.3-4.2v-3.9a50.56,50.56,0,0,0-1.8-13.65A79.06,79.06,0,0,0,303,179.4q0-1.5,1.2-1.5a3.55,3.55,0,0,1,2.7,1.35q1.2,1.35,1.8,1.95a22.51,22.51,0,0,0,1.95,1.65,22.51,22.51,0,0,1,2,1.65,4.85,4.85,0,0,1,1.95.75,9.55,9.55,0,0,1,1.65,1.05l.3.3.6,5.1q0,.3,1.2,4.2t1.8,6.3a.86.86,0,0,0,.3.6q0,.3.15.3t.15.3a33.18,33.18,0,0,1,1.95,3.9,33.18,33.18,0,0,0,2,3.9v.3q0,1.8-.9,1.8a6.15,6.15,0,0,0-4.5,2.7,5.79,5.79,0,0,0-.9,3q0,3.9,3.6,3.9a4.65,4.65,0,0,0,3.3-.9,7.25,7.25,0,0,0,1.5-3.3,12.64,12.64,0,0,1,.3-2.1,12.64,12.64,0,0,0,.3-2.1l.3-.3a.27.27,0,0,1,.3.3l.3.3q.6.6,2.25,2.55a10.92,10.92,0,0,0,2.25,2.25A12.66,12.66,0,0,0,336,222q1.8.9,3.3,1.8h.3q.3,0,.3-.15t.3-.15a.27.27,0,0,0,.3.3.27.27,0,0,1,.3.3,13.43,13.43,0,0,0,.15,4.5q.45,2.1.75,4.5v.3a1.27,1.27,0,0,1-.75,1,5.8,5.8,0,0,0-1.05.75,9.17,9.17,0,0,0-6.6-3,10.43,10.43,0,0,0-3.75.75q-1.95.75-3.75,1.65a55.09,55.09,0,0,0-6.9,6.3,3.76,3.76,0,0,0-1.2,1,2.26,2.26,0,0,0-.6,1.35v.6l6.3,13.8a14.62,14.62,0,0,1,1.2,3.3q.9,3,1.5,4.5a47.82,47.82,0,0,1,1.8,13.2q0,10.5-2.4,16.8T315,308.1q-.6.6-.6.9v.3l.3.3q0,.3.15.3t.15.3a.86.86,0,0,1,.3.6.27.27,0,0,0,.3.3,10.53,10.53,0,0,1,.3,3,6.13,6.13,0,0,1-2.1,4.65,6.86,6.86,0,0,1-4.8,1.95,4.94,4.94,0,0,1-1.5-.3,1.18,1.18,0,0,1-.9-1.2v-.3a2.06,2.06,0,0,0,1,.45,5.35,5.35,0,0,1,1.35.45q1.5.3,3-1.65a6,6,0,0,0,1.5-3.45,6.46,6.46,0,0,0-3.3-5.7,2.49,2.49,0,0,1,1.95-1.2,5.06,5.06,0,0,0,2.25-.6,3.49,3.49,0,0,1,.9-.6,1.73,1.73,0,0,1,1.2-.6,12.88,12.88,0,0,0,4.35-5.1,32.84,32.84,0,0,0,2.55-7,48.76,48.76,0,0,0,1.2-7.5q.3-3.75.3-6.75,0-3.9-.3-7.65a27.36,27.36,0,0,0-1.8-7.65,27,27,0,0,0-1.35-3.75,23.92,23.92,0,0,1-1.35-4.05,40.59,40.59,0,0,0-1.8-3.9,40.59,40.59,0,0,1-1.8-3.9,4.7,4.7,0,0,1-.9-1.2,4.7,4.7,0,0,0-.9-1.2l-.3.6v.3l.3.6a6.82,6.82,0,0,1,.9,1.65,6.82,6.82,0,0,0,.9,1.65q2.4,5.1,4.8,10.5a56.68,56.68,0,0,1,2.25,9.45,67,67,0,0,1,.75,10.05q0,1.8-.3,4.95t-.9,6.3a26.62,26.62,0,0,1-1.8,5.85,8.82,8.82,0,0,1-3,3.9v-.3l2.1-5.4a9.25,9.25,0,0,0,2-4.5,29.56,29.56,0,0,0,.45-4.8V273.6l-.6-2.4a16.41,16.41,0,0,1-.6-3.6v-1.2q-.3-.6-.75-1.8a6.43,6.43,0,0,1-.45-1.5q-.3-.6-.9-2.1t-1.35-3.3q-.75-1.8-1.5-3.45t-1-2.55a5,5,0,0,1-1.05-1.8,5,5,0,0,0-1.05-1.8,1.88,1.88,0,0,0-.45.75,1.88,1.88,0,0,1-.45.75,16,16,0,0,0-2,3.3,16,16,0,0,1-1.95,3.3v.6q1.5,2.4,3.15,4.65a26.62,26.62,0,0,1,2.85,4.95,51,51,0,0,1,4.2,20.1q0,9.3-4.8,15h.3a2.59,2.59,0,0,1,1.8-.9v.6l-2.1,2.1-2.7,1.8a5.83,5.83,0,0,1-3,1.2h-6a7.93,7.93,0,0,1-4-1.8,12.19,12.19,0,0,1-3.45-3.3q-2.7-3.3-5.55-6.75a33.67,33.67,0,0,1-4.65-7.35L267,250.2a2.29,2.29,0,0,1-.45-1.2,9.2,9.2,0,0,1-.15-1.2v-.6l5.7,11.4v-.3a7.62,7.62,0,0,0-2-4.8,8,8,0,0,1-1.95-5.1v-.3a.86.86,0,0,0,.6.3.86.86,0,0,1,.6.3,8.94,8.94,0,0,0,1.2.9q.9.6.9.9a14.8,14.8,0,0,0,2.1.75,14.8,14.8,0,0,1,2.1.75h2.4q5.1,0,7.65-1.5a49.83,49.83,0,0,0,6.45-4.8,1.06,1.06,0,0,1,.9-.9l1.2-.3q.6,0,.45-.45t.15-.45l.3.3,4.5,2.7h.3v-.3a5.65,5.65,0,0,0-2.25-1.35,3.22,3.22,0,0,1-1.95-1.65q0-.3-.15-.3t-.15-.3l-.3-.3.3-.3,4.8,3.6v-.3q0-.6-1.65-2.1t-2.25-2.1a2.76,2.76,0,0,1,2.4,1.35,5.53,5.53,0,0,0,2.1,1.95v-.3q0-.9-1.8-1.95t-1.8-1.65v-1.8l1.5-3h.3a8.7,8.7,0,0,1,2.7,2.7,2.46,2.46,0,0,1,1.5.9v-.6l-4.2-4.2q.9,0,.9-1.5l1.5.9a1.82,1.82,0,0,0-.45-.9,8.77,8.77,0,0,0-.75-.9v-.3a4.1,4.1,0,0,1,.15-.9,4.1,4.1,0,0,0,.15-.9l.6-.3v-.3a7.13,7.13,0,0,0-.3-1.95,7.13,7.13,0,0,1-.3-2v-.3a7,7,0,0,1,1,1.35A4.34,4.34,0,0,0,303,228l-1.5-3.6v-5.7h-1.8l.6.9a10.91,10.91,0,0,0-5.7,3.9v-.3a3.14,3.14,0,0,1,1.35-2.55,7,7,0,0,1,2.55-1.35h-.3a3.06,3.06,0,0,0-2.25.75l-1.35,1.35a6.94,6.94,0,0,0-.9,1.5,3.49,3.49,0,0,1-.6.9v4.5a.53.53,0,0,1-.6.6q-.6,0-1.35-1.2a10.55,10.55,0,0,0-1-1.5,6.15,6.15,0,0,0-3.45-1.35q-1.95-.15-3.75-.15h-2.7a20.64,20.64,0,0,0-2.55,1.2,8.48,8.48,0,0,0-2.25,2.1h.3a8.39,8.39,0,0,0,1.5-1.05,2.87,2.87,0,0,1,1.2-.75,1.58,1.58,0,0,1-.6,1.35,7.88,7.88,0,0,1-1.2.75q0,.3-.9.9a8.94,8.94,0,0,0-1.2.9.86.86,0,0,0-.6-.3q-.6.3-.6,1.5v1.5q0,.9.15,3.15t1.65,2.25a.27.27,0,0,1,.3-.3q.6-6.6,7.2-6.6a7.22,7.22,0,0,1,5.1,1.95,6.13,6.13,0,0,1,2.1,4.65,11.29,11.29,0,0,1-11.7,11.7,6.79,6.79,0,0,1-2.4-.45,7.65,7.65,0,0,0-2.7-.45h-.6a2.46,2.46,0,0,0,1.5.9h.6a.27.27,0,0,1,.3.3h6a5.8,5.8,0,0,0,4.05-1.5,29.23,29.23,0,0,1,3.45-2.7v.3q0,2.1-4.2,3.6a21,21,0,0,1-6,1.5,12.89,12.89,0,0,1-6.3-1.65,24.6,24.6,0,0,1-5.55-4.2,47.37,47.37,0,0,1-4.65-5.4,29.94,29.94,0,0,1-3.3-5.55h.3a7.69,7.69,0,0,1,1.8,1.65,11.22,11.22,0,0,1,1.5,2,.27.27,0,0,0,.3.3.27.27,0,0,1,.3.3,21,21,0,0,0-1.5-3,6.89,6.89,0,0,0-2.4-2.4l-.75,1.5-.75,1.5a7.44,7.44,0,0,0-.9,2.1,11.64,11.64,0,0,1-.6,1.5v.6l1.5,3.6q6.9,12.3,13.35,24.9a216,216,0,0,1,11.25,26.1,3.83,3.83,0,0,1,.9,2.25,5.06,5.06,0,0,0,.6,2.25,17.59,17.59,0,0,1,1.35,3.6q.45,1.8,1.05,3.6a7.32,7.32,0,0,1,.9,2.85,10.44,10.44,0,0,0,.6,2.55,55.2,55.2,0,0,1,1.2,11.4,29.92,29.92,0,0,1-3.3,14.1q-.6.9-1.2,1.65a5.31,5.31,0,0,0-.9,1.65q0,.3-.15.3t-.15.3a2.61,2.61,0,0,0-1.5.75,2.87,2.87,0,0,1-1.2.75q0,.3-.9.9a8.94,8.94,0,0,0-1.2.9l-.6-.6q0-.6,2.25-2.25a30.89,30.89,0,0,0,2.85-2.25l.3-1.2q.3-.6.6-.6a.86.86,0,0,0,.6-.3,23.66,23.66,0,0,0,2.7-6.9,32.18,32.18,0,0,0,.9-7.2,47.18,47.18,0,0,0-3.3-17.4q0-.3-.6-.9l-.3.3q-1.5,3-3.15,6.75a17.56,17.56,0,0,0-1.65,7.05,12.92,12.92,0,0,0,.15,2.1q.15.9.45,2.4l.3.6a10.41,10.41,0,0,1,1.35,1.8q.75,1.2,1.05,1.8-.3,0-.3.9a2.3,2.3,0,0,1-.3.9q-2.4,3.9-7.5,3.3a24.94,24.94,0,0,1-3.3,5.1,11.9,11.9,0,0,1-5.1,3.3,12.91,12.91,0,0,0-1.95.9,3.2,3.2,0,0,1-1.65.3h-.3l-4.8-1.2a1.23,1.23,0,0,0-.45-.75,1.44,1.44,0,0,1-.45-1,3.76,3.76,0,0,1,1.8-3.3q.6-.6,2.1-2.25t1.8-1.95a18.78,18.78,0,0,0,1.35-2.55q.75-1.65,1.05-2.25a8.6,8.6,0,0,0,.9-3.9v-6a6,6,0,0,1-1.35-3.3,11.39,11.39,0,0,0-.75-3.3,22.66,22.66,0,0,0-9-13.2,2.82,2.82,0,0,0-1.65-.75,2.82,2.82,0,0,1-1.65-.75,2.37,2.37,0,0,1-.3-1.5,5.39,5.39,0,0,1,.9-3.3,5.39,5.39,0,0,0,.9-3.3,13.3,13.3,0,0,0-.6-4.2q-.6-1.8-1.2-4.2a14,14,0,0,1-1.2-3.15,34.8,34.8,0,0,0-1.2-3.45q-.3-.6-1.35-3t-1.35-3h-.3q-.6,0-.6.9-.3.6-1.05,2.55t-1.65,4.05q-.9,2.1-1.65,4.05t-1.05,2.55a29.18,29.18,0,0,0-2.4,11.4,4.93,4.93,0,0,0,.15,1.2,4.93,4.93,0,0,1,.15,1.2v.3a4.65,4.65,0,0,1-2.7,1.8,6,6,0,0,0-3,1.8,18.18,18.18,0,0,0-5.55,9.6,44.52,44.52,0,0,0-1.65,11.1,39.49,39.49,0,0,0,.45,6.15,16.76,16.76,0,0,0,2,5.55,13.27,13.27,0,0,0,3.6,3.45q2.7,2,2.7,3.15a1.22,1.22,0,0,1-.3.9,8,8,0,0,1-6,3,7.88,7.88,0,0,1-5-1.5,25.22,25.22,0,0,1-3.75-3.6,16.77,16.77,0,0,1-1-1.8,7.05,7.05,0,0,0-1.35-1.8,11.82,11.82,0,0,1-3.3.15,29.29,29.29,0,0,1-3.3-.45q0-.3-.6-.9l-.9-.9a.86.86,0,0,1-.3-.6.86.86,0,0,0-.3-.6v-.3q0-.6.3-.6a10.6,10.6,0,0,1,1-2.55,5.78,5.78,0,0,0,.75-2.85V318a26.66,26.66,0,0,1-1.65-6.15,14.1,14.1,0,0,0-2-5.55q-.9,0-1.2,1.35a9.17,9.17,0,0,1-.6,2l-.6,1.8a11.86,11.86,0,0,0-.45,2.55q-.15,1.65-.15,2.25a8.88,8.88,0,0,0-.45,2.7q-.15,2.1-.15,2.4v8.4a20.89,20.89,0,0,0,2.55,8.1q1.95,3.3,4.35,7.2l.3.6-.3.3a3.49,3.49,0,0,1-.9.6,3.49,3.49,0,0,0-.9.6q-6.3-1.8-9-4.65t-4.8-9.15l-.3-.3a25,25,0,0,1-5.7-.9q-3.6-.9-3.6-4.2a2.71,2.71,0,0,1,1.5-2.4,17.06,17.06,0,0,1,2.1-1.65,5.92,5.92,0,0,0,1.8-1.65q1.5-1.2,1.5-4.2a5.9,5.9,0,0,0-1-3.15,3.49,3.49,0,0,0-3.15-1.65,3.3,3.3,0,0,0-3.3,2.4v4.8a6.76,6.76,0,0,1-.3,1.35q-.3,1-.9,1.05h-4.2q-1.5,0-3.15-2.85a9.91,9.91,0,0,1-1.65-4.35v-.3l1.5-3.9a42,42,0,0,1-3.9-2.7,16.41,16.41,0,0,1-3-3.3,50.26,50.26,0,0,1-3.75-7.2,31.59,31.59,0,0,1-1.95-7.5q0-1.2-.3-5.25a40.09,40.09,0,0,0-.6-5.25l.6-5.4a26.19,26.19,0,0,1,1.2-5.4q.3-1.2.9-3.15l1.2-3.9q.6-2,1.5-5l6.3-13.2a1,1,0,0,0-.3-1.2,48.86,48.86,0,0,0-8.1-6.6,17.91,17.91,0,0,0-9.9-2.7,25.83,25.83,0,0,0-2.85.15,11,11,0,0,0-2.85.75,2.82,2.82,0,0,0-1.8.75,2.61,2.61,0,0,1-1.5.75l-.3-.3v-.6q.6-1.8,1.2-4.35a19.49,19.49,0,0,0,.6-4.35v-.3l-.3-.3h-.3a5.84,5.84,0,0,0,2.1-.75,22.58,22.58,0,0,0,3.15-2q1.65-1.2,3-2.25a14.13,14.13,0,0,1,2-1.35,25.52,25.52,0,0,0,2.4-3q1.5-2.1,3-2.1a31.08,31.08,0,0,0,.45,5.1q.45,2.7,3.45,2.7,2.7,0,2.7-3.6,0-2.1-1.35-2.7t-3.15-1.2v-2.7a3.7,3.7,0,0,1,.6-2.1,24,24,0,0,0,1.65-2.4,19.3,19.3,0,0,1,1.95-2.7.27.27,0,0,1,.3-.3l1.5-3.75a11.24,11.24,0,0,0,.9-2.85,2.44,2.44,0,0,0,.6-1.8v-8.1q.6-1.5,3.6-3a26.33,26.33,0,0,0,4.5-2.7q.3-.3,1.5-1.35t1.5-1.35q0,.3.9-.6l.6-.6.3.6v2.7a3.09,3.09,0,0,1-.6,1.2,14.68,14.68,0,0,0-.9,1.5,5.66,5.66,0,0,1-.3,1.8,9.52,9.52,0,0,0-.6,2.7q-.3,1.5-.75,4.5t-.45,3.6v11.1a.86.86,0,0,0,.6.3q.3,0,.3.6l-.6.3V213l2.1,15.9.3.6a3.93,3.93,0,0,0,1.5-2.55,16.26,16.26,0,0,0,.3-2.85,3.63,3.63,0,0,0-.75-2.4,3.18,3.18,0,0,1-.75-2.1v-.3a11.09,11.09,0,0,1,6.3-1.8,5.3,5.3,0,0,1,4.35,1.65,21.74,21.74,0,0,1,2.55,4l.3.3a20.52,20.52,0,0,1,8.7-1.8q3.9,0,5.7,2t4.2,4.35l.45,1.8a8,8,0,0,1,.15,1.8,12.38,12.38,0,0,1-1.35,5.25A4.32,4.32,0,0,1,210,239.7h-.6l2.1-1.8a2,2,0,0,1-.9-.9q-.3-.3-.3-.45t-.3-.45l-.3-.3a4.53,4.53,0,0,0-1.8-1.5q-.9-.6-1.05-.45a2,2,0,0,1-1,.15q-4.5,0-6.9,4.5V240q0,4.5,3.6,5.55a26.65,26.65,0,0,0,7.5,1h1.8a23.89,23.89,0,0,0,3.75-1.65A14.7,14.7,0,0,0,219,242.4a37.51,37.51,0,0,1,2.4-3,20.17,20.17,0,0,0,2.1-2.7q.9-1.2,1.95-2.7a5.21,5.21,0,0,0,1.05-3q0-1.2-.3-1.2-2.4-3.9-4.2-7.35t-4.2-7.35q-.9-1.2-3.15-3.75t-4.05-2.55a9.34,9.34,0,0,1-2.1,4.35q-1.5,1.65-4.8,1.65a5.78,5.78,0,0,1-3.45-1.2,4.16,4.16,0,0,1-1.65-3.6v-.6a.27.27,0,0,1,.3-.3H207q0-.6-.3-.6h-6.9a5.65,5.65,0,0,0-2.25.45,5,5,0,0,1-2,.45h-.3a24.73,24.73,0,0,0-3.15-2.25l-3.45-2.25a5.26,5.26,0,0,1-1.5-.6l-1.8-.9a5.86,5.86,0,0,0-1.2-.45,1.9,1.9,0,0,1-.9-.45,5.83,5.83,0,0,1,3-1.2l9.3-4.8q1.8,0,3.3-2.85a5.29,5.29,0,0,1,5.1-2.85,4.34,4.34,0,0,1,3.9,1.8,13.84,13.84,0,0,1,1.8,3.9h.6q2.1,0,5.1-2.25a43.85,43.85,0,0,0,4.5-3.75,30.89,30.89,0,0,0,2.25-2.85,30.89,30.89,0,0,1,2.25-2.85,32.85,32.85,0,0,0-8.85-9A19.81,19.81,0,0,0,204,171.9h-1.5q-.9,0-.9.6a10.29,10.29,0,0,1,1.05,2.1,6.79,6.79,0,0,1,.45,2.4,5.76,5.76,0,0,1-1.8,4.2,9,9,0,0,1-3.9,2.4,5.52,5.52,0,0,1-1.65.45,12.4,12.4,0,0,1-1.65.15,6.15,6.15,0,0,1-5.25-2.7,9.58,9.58,0,0,1-1.95-5.7,12.57,12.57,0,0,1,3-8.55,22.25,22.25,0,0,1,7.5-5.55,9.24,9.24,0,0,1,3.45-.6h6.45a14,14,0,0,0,2.55.75,14.92,14.92,0,0,0,2.55.45,8.56,8.56,0,0,0,3.3,1.65,12.05,12.05,0,0,1,3.3,1.35,11.6,11.6,0,0,0,2.1,1.5,6.58,6.58,0,0,0,1.8.9l6.9,6.9h.3q.3,0,.9-1.2a16.46,16.46,0,0,0,.9-2.1l.6-1.8a5.35,5.35,0,0,0,.45-1.35,2.06,2.06,0,0,1,.45-1.05q.6-1.2,1-2.25t1.05-2.55a11,11,0,0,0,.75-3,11,11,0,0,1,.75-3h-.3a5.17,5.17,0,0,1-4.2-1.8,7.66,7.66,0,0,1,.15-9.3q1.65-1.8,4.95-1.2A53.42,53.42,0,0,1,240.45,136.65Zm-94,95.55h24.9v-.6a32.82,32.82,0,0,0-3.9-.3h-3.9q-4.2,0-8.25.3a61,61,0,0,1-8.55,0Zm21.3-1.8a1.73,1.73,0,0,0-1.2-.6h-18a1.21,1.21,0,0,0-1.2.6Zm-1.5-1.5a.53.53,0,0,0-.6-.6H147.3a9.82,9.82,0,0,0,2.4.6Zm-18.3-2.1h24l.6-.3v-.3H150a4.18,4.18,0,0,0-1.8.3ZM153,225l.6.3h9.6q0-.3,1.2-.3v-.3H153.6Zm4.8-1.5a9.86,9.86,0,0,0,2.4-.3l-.3-.3h-3.6q-.9,0-.9.6Zm1.2-2.1a.27.27,0,0,0-.3-.3q-.9,0-.9.3ZM170.4,234q0-.6-.3-.6h-9.3l.3.6Zm54.3,3.6a21.83,21.83,0,0,1-4.65,5.85,32.64,32.64,0,0,1-6.15,4.35h.6a4.91,4.91,0,0,0,1.2-.3,3.26,3.26,0,0,0,1.2-.6v.3q0,.9-1.35,1.5a21,21,0,0,1-3,1.05q-1.65.45-3.3.75a15.35,15.35,0,0,1-2.25.3h-3.45a6.57,6.57,0,0,1-3.45-.9q-6-3.6-6-9.6a9.23,9.23,0,0,1,1.35-5.1,23.4,23.4,0,0,1,3.15-3.9,3.36,3.36,0,0,1,2.25-1.2h2.25q1.8,0,2.1.6a.61.61,0,0,0-.45.15.61.61,0,0,1-.45.15,14.25,14.25,0,0,0-6.6,2.4q-2.4,1.8-2.4,6.6a9.08,9.08,0,0,0,1.35,5.25,11.72,11.72,0,0,0,4,3.45,1.73,1.73,0,0,0,1.2.6h.6a2.68,2.68,0,0,0-1.65-1.5,3.73,3.73,0,0,1-1.65-.9,5.8,5.8,0,0,0-1-.75,5.8,5.8,0,0,1-1.05-.75,20.8,20.8,0,0,1-.9-4.8,8.71,8.71,0,0,1,8.7-8.7,6.57,6.57,0,0,1,4.35,1.65,6.17,6.17,0,0,1,2.25,4,6.79,6.79,0,0,0,1.5-4.5,7.55,7.55,0,0,0-2.4-6v.6q.6,1.5,1.05,2.4a6.27,6.27,0,0,1,.45,2.7v1.8q-.6-.3-1-2.85A9,9,0,0,0,209.7,228a6.93,6.93,0,0,0-4.5-2.85,32.79,32.79,0,0,0-5.4-.45v-.6h-.3a4.14,4.14,0,0,0-3.45,1.8,3.7,3.7,0,0,1-2.85,1.8h-.6q-.6-4.2-1.65-5.1a45.49,45.49,0,0,0-4.35-3l-.3-.3q-1.5,0-1.5.6.3,1.2.45,2.1a12.92,12.92,0,0,1,.15,2.1A11.56,11.56,0,0,1,183,231a85.17,85.17,0,0,0-15.3,24.9q-.3,0-.3.6a6.53,6.53,0,0,1-1.05,2.55A12.14,12.14,0,0,0,165,261.6q-.3,1.5-1.35,6.15t-1.35,6.15a15.59,15.59,0,0,0-.75,3.75q-.15,2-.15,3.45a65.25,65.25,0,0,0,1.8,14.25q1.8,7.95,6.9,12.15a20.46,20.46,0,0,1,2.1,1.35,20.46,20.46,0,0,0,2.1,1.35,1.73,1.73,0,0,1,.6,1.2,4.83,4.83,0,0,1-.6,2.1,6,6,0,0,0-.6,2.7,5.58,5.58,0,0,0,1.2,3.6,4.33,4.33,0,0,0,3.6,1.5h1.2a16.32,16.32,0,0,1,.6-6.15q.9-3.15,4.5-3.15a6.26,6.26,0,0,1,4.35,1.8,5.55,5.55,0,0,1,1.95,4.2,6.66,6.66,0,0,1-1,3.9,10.45,10.45,0,0,1-2.25,2.4q-1.2.9-2.25,1.8a2.7,2.7,0,0,0-1.05,2.1q0,1.5.6,1.5a4.7,4.7,0,0,0,1.2.9,3.49,3.49,0,0,0,.9.6l.6-.3-.6-.6a8,8,0,0,1,2.4-1.35,10.64,10.64,0,0,1,2.1-.75v.9a.86.86,0,0,1,.6-.3l.3-.3h.3q.3,0,.3,1.2a3.34,3.34,0,0,1-.3,1.5,14,14,0,0,1,.75,2.55,5.64,5.64,0,0,0,1,2.55q.6,2.4,3.75,5.7t5.85,3.3a4.32,4.32,0,0,0-1.5-3,9.14,9.14,0,0,1-2.1-3,25.55,25.55,0,0,1-2.25-7.8,70.66,70.66,0,0,1-.45-8.1,51.71,51.71,0,0,1,1.2-10.95,41.34,41.34,0,0,1,3.9-10.65v-.3l-.3-.3h-.3l-.3.6q-2.7,6.9-4.2,11.85a42.4,42.4,0,0,0-1.5,12.15h-.9a61.47,61.47,0,0,1,.6-8.7,43,43,0,0,1,2.1-8.4,33,33,0,0,1,1.8-4.5,33,33,0,0,0,1.8-4.5,8.31,8.31,0,0,0-1.65-3.6,30.74,30.74,0,0,0-2.85-3.3,29.82,29.82,0,0,1-5.4,6.6q-3,2.7-6.3,5.4a17.73,17.73,0,0,1-6,1.2,10.91,10.91,0,0,1-6.3-1.65,11.64,11.64,0,0,1-3.75-4.2,20.13,20.13,0,0,1-2-5.85,35.25,35.25,0,0,1-.6-6.3q0-.6.15-2.25t.15-2.25q.6-3,1-5.55a36.9,36.9,0,0,1,1.35-5.25,40.13,40.13,0,0,1,3.75-7.8q2.25-3.6,4.65-7.8.3-.3,1.2-1.35a20.79,20.79,0,0,1,2.1-2.1,14.76,14.76,0,0,0,2.1-2.25,5.15,5.15,0,0,1,1.5-1.5q.3-.3,1.65-1.35a22.51,22.51,0,0,0,1.95-1.65q0-.3.75-.75t1.35-.75q0,.3.9-.6a.86.86,0,0,1,.6-.3h.6a9.4,9.4,0,0,0,1.8,2.4,14.54,14.54,0,0,0,2.1,1.8,10.85,10.85,0,0,0,3.75,2.1q1.95.6,4,1.2h2.7a15,15,0,0,0,7.8-1.8q.9-.6,3.3-2.1a21.1,21.1,0,0,0,3-2.1v.3l-12.9,25.2a.86.86,0,0,0-.3.6v.9l-.3.6v.3a1.61,1.61,0,0,0,1.2,1.8,2,2,0,0,1-.6,1.5v.3h.6a.27.27,0,0,1,.3.3,4.91,4.91,0,0,1-.3,1.2,3.26,3.26,0,0,1-.6,1.2v.3l.3-.3,14.4-28.8,1.8-2.1v.3a9.9,9.9,0,0,0-.6,1.65,3.43,3.43,0,0,1-.6,1.35l-12.3,25.8a2,2,0,0,0-.6,1.5v.6l.3-.3,2.1-4.2,1.8-3.6,1.5-3v-1.2a.27.27,0,0,1,.3-.3q.6-1.2,1.5-3.15t1.8-3.75q.9-1.8,2.4-4.5l.9-1.5,6.3-14.4a10.62,10.62,0,0,0,1.5-2.25,10.62,10.62,0,0,1,1.5-2.25l.3-.6a5.36,5.36,0,0,1,1.2-2.55,4.66,4.66,0,0,0,1.2-1.95l6.6-13.2h.3q0-.3-.6-.9l-15.6,30a2.66,2.66,0,0,1-.3,1.2,1,1,0,0,1-.9.6v-.3l.3-2.1q1.5-3,2.55-4.8t2-3.75q.9-2,1.5-3.15.3-.6,1.95-3.6a29.44,29.44,0,0,1,1.95-3.3q1.5-2.7,3.75-7.2a44.11,44.11,0,0,0,2.25-4.8v-.6l-1.8-4.5h-.3l-.3.3a2.06,2.06,0,0,0-.45,1,6.32,6.32,0,0,0-.15,1.05Zm-60-1.8h1.2a10.53,10.53,0,0,0,3-.3q-.3-.6-2.4-.6a4.61,4.61,0,0,0-1.8.6Zm.6-22.8h11.4v-.3l-.3-.3H168a4.83,4.83,0,0,1-2.1-.6l.6-.6h8.4a2.37,2.37,0,0,0,1.5-.3v-.3q-.9,0-4.65-.15t-5.25-.15h-.3a2.61,2.61,0,0,0-.75,1.35,2.61,2.61,0,0,1-.75,1.35Zm.9,12.3h3.9q1.2,0,1.2-.6h-4.5a2.47,2.47,0,0,1-.75-.15,1.37,1.37,0,0,0-1.05.15Zm0,54a1.74,1.74,0,0,0,.3-1.2v-1.2q.3-.6,1.2-3a12.46,12.46,0,0,1,1.2-2.7,4.91,4.91,0,0,1,.3-1.2,4.91,4.91,0,0,0,.3-1.2v-.6a.27.27,0,0,1,.3-.3l6.3-11.1a21.42,21.42,0,0,1,5-6q3.15-2.7,5.85-5.1.9-.6,2.1-1.5a6.76,6.76,0,0,1,2.4-1.2h.3q-1.5,1.5-3.45,3.15t-3.45,3.15l-3,3-3,3a49,49,0,0,0-9.15,15.6,52.47,52.47,0,0,0-3.15,18,31.39,31.39,0,0,0,.6,5.85,19.46,19.46,0,0,0,2.1,5.85,15,15,0,0,0,3.75,4.5,9.08,9.08,0,0,0,5.85,1.8,12.92,12.92,0,0,0,2.1-.15,15.24,15.24,0,0,1,2.4-.15,1.17,1.17,0,0,1-.75,1.2,2,2,0,0,0-1.05,1.5l-1.2-1.5h-2.25a5.68,5.68,0,0,1-2.25-.3,4.83,4.83,0,0,1-2.1-.6,16.46,16.46,0,0,0-2.1-.9q0-1.2-.9-1.2l-.6-.6-.3-.3a23.14,23.14,0,0,1-3.3-7.2,32.1,32.1,0,0,1-.9-7.8v-4.65a43,43,0,0,1,.3-4.65Zm.3-65.1v.3H177l-.3-.3a2.47,2.47,0,0,1-.75-.15,2.47,2.47,0,0,0-.75-.15H168Zm.6-4.8h9.3v-.3q-.9,0-4.2-.15t-4.2-.15h-.3a.27.27,0,0,0-.3.3Zm1.5,19.5h4.2a.86.86,0,0,0,.3-.6V228h-3a7.8,7.8,0,0,0-2.4.3Q167.7,228.9,168.6,228.9Zm-.6-5.7h2.7v-.3h-2.4Zm.3-6.9h8.4V216h-8.4Zm0-9v.3q.6,0,3.45.15t3.45.15h.6a.8.8,0,0,0,.9-.9h-8.4Zm1.5,14.1q0-.3-.9-.3a.27.27,0,0,0-.3.3Zm1.8,9v-.6h-2.7q0,.6.3.6Zm-2.1-10.8h-.6a.27.27,0,0,0,.3.3Zm-.6-1.5h1.2q0-.6-1.2-.6Zm0-12h7.2l.3-.9h-7.5Zm.9-2.1h6.6v-.3h-5.7Zm.75,89.85a19.18,19.18,0,0,0,1.5,4.8,12.28,12.28,0,0,0,2.85,3.9,6.41,6.41,0,0,0,4.5,1.65,14.24,14.24,0,0,0,3.3-.3,28,28,0,0,0,7.05-4.2,36.14,36.14,0,0,0,5.55-6,2.3,2.3,0,0,1,.6-1.05,2.26,2.26,0,0,0,.6-1.35.86.86,0,0,1-.6-.3l-.3-.6a22.51,22.51,0,0,0-1.95-1.65,14.13,14.13,0,0,0-2-1.35q-.3-.6-.45-.45a1.19,1.19,0,0,1-.75.15.86.86,0,0,1-.3-.6,7.83,7.83,0,0,0-4.8-2.4q-3.3-.6-5.7-.9v-1.5a13.88,13.88,0,0,1,1.2-5.7,14.61,14.61,0,0,0,1.2-6,39.15,39.15,0,0,0-1.5-10.5,3.79,3.79,0,0,0-1.8,2.1,47.64,47.64,0,0,0-6.45,13.2,49,49,0,0,0-2.25,14.7A25.65,25.65,0,0,0,170.55,293.85Zm-.45-91.35h6.3l.3-.6h-6.6Zm.3,34.8h1.2q0-.6-1.2-.6Zm0-17.7q0,.3.9.3a.53.53,0,0,0-.6-.6Zm6.3-18.9v-.9h-6q0,.9.3.9ZM171,234.9a.53.53,0,0,0,.6.6A.53.53,0,0,0,171,234.9Zm5.4-36a.27.27,0,0,0,.3-.3v-.3l-.3-.3h-4.5a.8.8,0,0,0-.9.9Zm-5.1,22.5h.3l-.3-.3Zm1.2,12h-.9q0,.6.9.6Zm-.9-10.2h.9v-.3h-.9Zm0-5.1h6q0-.3-.6-.3h-5.4Zm0-21H177v-.3h-5.4Zm0-1.5H177v-.9h-5.1Zm.3,43.5a.61.61,0,0,1,.45.15.61.61,0,0,0,.45.15v-1.2q-.9,0-.9.6Zm0-45.6H177v-.6h-5.1Zm5.4-1.5.3-.3v-.3a.27.27,0,0,0-.3-.3h-3.9q-1.5,0-1.5.9Zm-4.8-1.8h4.8l.3-.3h-5.7Zm-.3,46.5q0,.9,1.2.9Q173.4,236.7,172.2,236.7Zm.3-5.1a.8.8,0,0,0,.9.9A.8.8,0,0,0,172.5,231.6Zm4.8-11.7.3-.3h-4.8q.3,0,.3.15t.3.15Zm-3,20.4h-1.2q0,.6,1.2.6Zm-.6-4.5h2.4v-.6h-1.5q-.3,0-.3-.15t-.3-.15h-.6l-.3.3Zm-.6-10.5.3-.3-.3-.3Zm0-4.2v.3h4.5a.27.27,0,0,0-.3-.3.86.86,0,0,0-.6-.3Zm2.1,17.7a.53.53,0,0,0-.6-.6h-.9a1.06,1.06,0,0,0,1.2,1.2A.86.86,0,0,0,175.2,238.8Zm-.6-5.4h-.9q0,.6.9.6Zm1.8-9.9v-.6h-2.7q0,.6,1.5.6Zm-2.7-35.7v.3l.3.3h3l.6-.6h-3.9Zm1.2,38.4H174q0,.6.9.6Zm-.6-1.2,1.2.3V225q0-.3-1.2-.3Zm.3,6.9h.3q0-.6-.3-.6Zm2.1,4.8h-1.8q0,.6.9.6T176.7,236.7Zm-1.2-8.1h.3q0-.6-.3-.6Zm.9,4.8h-.6a.53.53,0,0,0,.6.6Zm0-6.3v-.9h-.3v.6Zm.3.9q0,.6,1.2.6v-.3q0-.3-.6-.3Zm.3,7.5h1.2q0-.6-1.2-.6Zm.3-49.2a1.22,1.22,0,0,0,.9.3v-.3Zm9,124.5a33.46,33.46,0,0,0,4.2-5.1,24.13,24.13,0,0,1,4.2-4.8v1.5a29.86,29.86,0,0,1-3.45,4.5q-2,2.1-4.05,4.5h-.3a1.22,1.22,0,0,1-.9-.3q-4.5.3-5.85,2.7a11.77,11.77,0,0,0-1.05,6.6l-.3.3h-.3q-.6,0-.75-.9a9.43,9.43,0,0,1-.15-1.5,9.19,9.19,0,0,1,2-5.4,6.15,6.15,0,0,1,5.25-2.7h.6q.3,0,.3.15t.3.15ZM178.2,234v-.6h-.6Zm0-1.8a3.32,3.32,0,0,0,1.05-.15,3.32,3.32,0,0,1,1.05-.15v-.3h-2.1Zm0-2.1h.6v-.3h-.6Zm.3-3.9h-.3q0,.6.3.6ZM191.1,258v-.3h-9l-.6.3Zm-9.3,2.1h8.1a2.3,2.3,0,0,1,.9-.3.61.61,0,0,0,.45-.15.61.61,0,0,1,.45-.15l-.3-.3h-6.3a20.2,20.2,0,0,0-3.3.3Zm.6,20.7h18.9l.3-.3-.3-.3H183.6a.61.61,0,0,1-.45-.15.61.61,0,0,0-.45-.15v.3l-.3.3Zm0-19.2h10.2v-.3H182.4Zm.6,17.7h8.85q4.35,0,8.85-.3a1,1,0,0,0-.9-.6h-4.05q-2.25,0-4.8.15t-4.8.15H183Zm0-16.2a5.06,5.06,0,0,0,2.25.6h4.95a18.86,18.86,0,0,0,3-.3v-.6h-9.6Zm.3-6.6h4.2a13.9,13.9,0,0,0,2.7-.3h-.3a2.45,2.45,0,0,0-1.8-.45,10.93,10.93,0,0,1-1.8.15h-2.4q-.6,0-.6.15t-.3.15Zm0,21a.27.27,0,0,0,.3.3h9q.6,0,3.3-.15t3.3-.15v-.9q-1.2,0-5.55.15t-5.85.15h-2.25a5.68,5.68,0,0,0-2.25.3Zm.3-10.5h7.2a20.57,20.57,0,0,0,3.9-.3v-.3q0-.3-.6-.3h-5.55a21.62,21.62,0,0,0-5.25.6Zm-.3-2.4v.3a.86.86,0,0,0,.3.6H191a8.4,8.4,0,0,0,3.15-.6l-.6-.3H183.3Zm.3,10.8h15v-.3h-15Zm0-6.9h12v-.3H183.9Zm.3,5.4q1.2,0,5.1.15t5.4.15h2.1a1.21,1.21,0,0,0,1.2-.6l-.3-.3H184.5l-.6.3Zm12.9-1.8v-.3q0-.3-.75-.3H185.4q-1.2,0-1.2.3l-.3.3ZM183.9,270v.3q0,.6.9.6a1.85,1.85,0,0,0,1-.3,1.85,1.85,0,0,1,1.05-.3,3.34,3.34,0,0,1,1.5.3,3.34,3.34,0,0,0,1.5.3,24.87,24.87,0,0,0,3-.15l3.3-.45V270a.27.27,0,0,0-.3-.3Zm5.1,12.9h3q1.2,0,4.95-.15t5-.15v-.3H184.8a.86.86,0,0,0,.6.3.86.86,0,0,1,.6.3Zm-4.2-28.2h5.1a1.73,1.73,0,0,0-1.2-.6h-2.4a.61.61,0,0,0-.45.15.61.61,0,0,1-.45.15h-.6Zm4.2-1.8h.3l-.3-.6h-.9q-1.8,0-1.8.6Zm5.7-70.5a8.6,8.6,0,0,0,3.9-.9,3.35,3.35,0,0,0,1.8-3.3,4.07,4.07,0,0,0-1.2-3,4.94,4.94,0,0,0,.3,1.5,4.94,4.94,0,0,1,.3,1.5,3.43,3.43,0,0,1-.75,2,2.08,2.08,0,0,1-1.65,1h-.3a4.32,4.32,0,0,0,1.5-3q0-2.7-1.65-3t-1.65-.9a2.24,2.24,0,0,1,1.2-2,8,8,0,0,1,2.7-1,16,16,0,0,1,3.15-.3h2.25a18.23,18.23,0,0,1,7.35,1.5,28.45,28.45,0,0,1,6.45,3.9h.3a1.76,1.76,0,0,0,1.5-.9l4.8,4.2-.3-.3a.27.27,0,0,1-.3-.3,26,26,0,0,1-2-2.4,26,26,0,0,0-1.95-2.4h.9v-1.5l-1.8-1.2-1.2-1.2a4.7,4.7,0,0,0-1.2-.9q-5.7-3.9-14.1-3.9a18.48,18.48,0,0,0-7.8,1.8q-.9.6-1.5,1a12.34,12.34,0,0,1-1.8,1.05v-.3q.9-2.4,4.65-3.6a20.53,20.53,0,0,1,5.55-1.2,42.89,42.89,0,0,1,7.35.6,18.41,18.41,0,0,1,6.75,2.7,21.1,21.1,0,0,0,3,2.1q2.4,1.5,3.3,2.1l.3-.3a8.8,8.8,0,0,0-2.55-2.25q-1.35-.75-2.85-1.65a24.29,24.29,0,0,0-7.05-2.85,36.08,36.08,0,0,0-7.65-.75,19.15,19.15,0,0,0-9.9,2.85,9.57,9.57,0,0,0-4.8,8.85Q188.1,182.4,194.7,182.4Zm-4.8,102.3h8.4a4.93,4.93,0,0,0,1.2-.15,4.93,4.93,0,0,1,1.2-.15h1.8l.3-.3-.3-.3h-7.95q-2.25,0-5.25.3Zm-.6-81.3.6.6h26.7a.27.27,0,0,1,.3-.3q.3,0,.3-.15t.3-.15a12.62,12.62,0,0,0-3-.3,22.64,22.64,0,0,0-4.2.3H191.7a.27.27,0,0,0-.3-.3h-.6l-.9-.3a.27.27,0,0,0-.3.3Zm1.5,126.9h.3l.3-.6v-.3Zm3.9-21.6q.6-1.2,1.35-2.85A6.42,6.42,0,0,1,198,303.3v.3a1.22,1.22,0,0,1-.3.9q-.6,1.5-2.25,5.55A38.66,38.66,0,0,1,193.2,315q0,1.2-.9,1.2v-.3a3.32,3.32,0,0,1,.15-1,3.32,3.32,0,0,0,.15-1.05v-.3q-.6,1.5-1.5,1.5v-.3a12.71,12.71,0,0,1,.75-2.25,15.47,15.47,0,0,1,1.35-2.85,2,2,0,0,1,.45-1.2,7.88,7.88,0,0,0,.75-1.2l.3-.3Zm3.45-42q.75,1.8,1.65,3.75l1.65,3.6q.75,1.65,1.05,2.55a3.25,3.25,0,0,0,1.2,1.5l11.4-22.2,2.1-4.8h-.3a34.9,34.9,0,0,1-4.35,1.35,20.93,20.93,0,0,1-4.65.45,24.71,24.71,0,0,1-7.5-1.05,14.68,14.68,0,0,1-6.3-4.35h-1.2a.86.86,0,0,0-.6.3l-.75.75a1.23,1.23,0,0,0-.45.75v.3a10.71,10.71,0,0,0,.9,2.7,11.72,11.72,0,0,1,.9,2.4,9.3,9.3,0,0,0,.6,1.8q.9,2.1,1.65,4.05a19.13,19.13,0,0,0,1.95,3.75Q197.4,264.9,198.15,266.7Zm-6.75-61.2h21.3l.6-.3H191.4Zm0-3.3h28.2l.3-.6H191.7Zm.9,83.4a.86.86,0,0,0,.6.3.27.27,0,0,1,.3.3h9.6a.53.53,0,0,0,.6-.6Zm.9-59.55q0-.15-.3-.15t-.3.15.3.15Q193.2,226.2,193.2,226.05Zm0-.45.3-.3V225l-.6-2.1h-.3a9.87,9.87,0,0,1,.6,3Zm0,86.1.6-.6-.3-.3-.3.6Zm.3-104.7a.27.27,0,0,1,.3.3.27.27,0,0,0,.3.3h4.5q1.2,0,1.2-.6Zm.6,103.2q-.3,0-.3.15t.3.15Zm.3-.6q-.3-.3-.3,0a.27.27,0,0,0,.3.3Zm.3-.6q-.3-.3-.3,0a.27.27,0,0,0,.3.3Zm-.3-109.5v1.2h26.4q.3,0,.9-1.2Zm.3,107.1a.3.3,0,1,1,.3.3A.27.27,0,0,1,194.7,306.6ZM195,288h9.3v-.9H203a2,2,0,0,0-1.35.3H198a6.65,6.65,0,0,0-2.1.3Zm7.2,56.1q-.3,0-.75-.6a8.77,8.77,0,0,0-.75-.9,19.79,19.79,0,0,1-3.6-8.1,5.82,5.82,0,0,1-.45-1.8,20.24,20.24,0,0,0-.45-2.4q-.3-1.2-.6-2.7v-.3l.9-.3.3.3a5.33,5.33,0,0,1,.45,1.5,9.43,9.43,0,0,1,.15,1.5q.6,2.4,1,3.9t1.35,3.9a21,21,0,0,0,1.5,3,21,21,0,0,1,1.5,3Zm-5.7-54.6h8.7v-.3h-8.4Zm1.8,1.8h8.1V291l-.3-.3h-6.3l-1.5.3Zm3.3-94.2h2.7a.61.61,0,0,0,.45-.15,1.19,1.19,0,0,1,.75-.15h.9v-.3q-.6,0-2.7-.15t-2.7-.15h-.6a2,2,0,0,0-1.8.9Zm-2.4,1.5h7.2q0-.6-.9-.6h-.6q-.6,0-2.85.15t-2.85.15Zm0-3.3h7.2v-.6h-7.2Zm.6,97.5.3.3H207l-.3-.6Zm.3-81.9h7.2v-.3a.86.86,0,0,0-.6-.3h-6.3Zm7.5,83.7.6-.3H204a15.26,15.26,0,0,0-3,.3ZM204,213h1.35a1.07,1.07,0,0,0,1.05-.6h-5.1v.3h.6q.3,0,.3.15t.3.15Zm-2.1,83.4h6.3v-.3h-6.3Zm0-102.9h1.8v-.6h-1.8Zm.3,14.1a4.1,4.1,0,0,1,.9.15,4.1,4.1,0,0,0,.9.15,9.43,9.43,0,0,0,1.5-.15A2.69,2.69,0,0,0,207,207h-4.5a.27.27,0,0,0-.3.3Zm.9,90.3a.53.53,0,0,0,.6.6h.3q.6,0,2.4-.15t2.1-.15a.86.86,0,0,0,.3-.6h-5.7Zm.6,1.8v.3h6l.3-.3a.27.27,0,0,0-.3-.3h-.6Zm0-50.1h4.2a6.31,6.31,0,0,1-1.5-.15,6.31,6.31,0,0,0-1.5-.15l-.9.3Zm1.2,52.2h3.45q2.55,0,2.55-.6h-6.6a.27.27,0,0,0,.3.3Zm.6,1.5h6V303h-6Zm.3,1.5v.3l.6.3h4.5a.86.86,0,0,1,.6-.3h.6l.3-.3-.3-.3h-6Zm.6,1.5v.9q.6,0,2.55-.15t2.55-.15a.27.27,0,0,1,.3-.3h1.5v-.3h-6.9Zm0-22.5v-.6q.3-.6.6-1.35t.6-1.35a11.64,11.64,0,0,1,.6-1.5v-.6l-1.2,2.4a6,6,0,0,0-.6,2.7Zm.6,24.3.6.6h5.7v-.9h-6Zm.9-33.9a.3.3,0,1,0-.3.3A.27.27,0,0,0,207.9,274.2Zm-.3,36H222l-.3-.6H207.9Zm.3,19.2h12.6q.9,0,.9-.6H207.9Zm1.2-44.4a5.22,5.22,0,0,0,.9-2.1l-.3-.3a3.42,3.42,0,0,0-1.2,1.8,6.88,6.88,0,0,0-.6,2.1Q208.2,286.5,209.1,285Zm5.7,42.9q3.3,0,6.6-.3V327H210a6.32,6.32,0,0,0-1.05.15q-.75.15-.75.75ZM208.2,312l3,.3.3-.3h9q.3,0,.9-.6H208.2Zm0-31.2q.3.3,0,.3Zm0-2.4a.3.3,0,1,0,0-.6Zm1.2-28.8a5.68,5.68,0,0,0,4.2-1.5h-.3a6.79,6.79,0,0,0-2.4.45q-1.2.45-2.7,1Zm-.9,64.2h11.1a4.1,4.1,0,0,0,.9-.15.71.71,0,0,0,.6-.75h-1.8q-1.2,0-5.25.15t-5.55.15Zm4.2,17.4q1.2,0,1.2-.6h-5.1q0,.6,1,.6h2.85Zm-3.6-5.1h11.4v-.6H209.1Zm0-10.5h11.1l.3-.3a.27.27,0,0,1,.3-.3H209.1Zm.3-108.3q3,.3,6.15.3h6.15V207a.27.27,0,0,0-.3-.3h-7.05q-1.95,0-4.95.3Zm10.5,115.2.3-.3-.3-.3H210a.86.86,0,0,0-.3.6ZM210,321h9.9v-1.2q-2.4,0-5.1.15t-5.1.45Zm-.3-1.8q2.7,0,5.4-.15t5.1-.45v-.3H210a.27.27,0,0,0-.3.3Zm0-2.4.3.3h2.4a13.85,13.85,0,0,1,1.95.15,12.4,12.4,0,0,0,1.65.15h3a1.21,1.21,0,0,0,1.2-.6l-.6-.3h-9Zm3.6-34.2a18.19,18.19,0,0,0-2.1,3.75,12.77,12.77,0,0,0-1.5,4.35,12.54,12.54,0,0,0,.6,2.1l4.5,9.3v-.3l.3-.3a.27.27,0,0,1,.3-.3l17.1-35.1a10.29,10.29,0,0,0,1.05-2.1,10.29,10.29,0,0,1,1-2.1q.3-.6,1.2-2.7t1.2-2.7a3.77,3.77,0,0,0,.9-1.5,4.91,4.91,0,0,0,.3-1.2L233.1,243h-.3a9.11,9.11,0,0,0-2.55,3.9q-1,2.7-1.65,4.2ZM210,323.4v.6a20.57,20.57,0,0,0,3.9.3q.9,0,3.75-.15t2.85-.45v-.3Zm.9-42.6a.3.3,0,1,0-.3.3A.27.27,0,0,0,210.9,280.8Zm12.3-82.2V198H212.4q-.9,0-.9.6Zm-7.8,10.8a1.74,1.74,0,0,0,1.2-.3h6.6v-.6h-4.8a38.66,38.66,0,0,0-4.8.3Q213.9,209.4,215.4,209.4Zm-1.8-3.9h6.3v-.3h-6.3Zm1.2,103.2H222l.9-.9h-8.1Zm2.55-111.6h5.1a13.35,13.35,0,0,0,2.55-.3v-.6h-1.2l-.6.3-.6-.3h-7.2l-.3.3a.27.27,0,0,0-.3.3A13.35,13.35,0,0,0,217.35,197.1ZM216,306.3l-.6.6h6.9a.27.27,0,0,1,.3-.3h.6q0-.3-.6-.3H216Zm1.8,26.7a6.31,6.31,0,0,0,1.5-.15,4.93,4.93,0,0,1,1.2-.15l-.3-.3-.3-.3h-3.6v-.9h6.3v-.3l-.3-.3h-6a.27.27,0,0,0-.3.3.86.86,0,0,0-.3.6Q215.7,333,217.8,333Zm-2.1-122.1h8.7V210q-2.1,0-4.05.15t-3.75.15Q215.7,210.3,215.7,210.9Zm.3,93.9.3.6,8.4-.3-.6-.6h-7.5Zm.6-1.5h8.7V303h-4.05a16.46,16.46,0,0,1-4.05-.3h-.6Zm7.8,31.2-.3-.6h-6.3q-.9,0-.9.6Zm-7.2-33h8.1a.86.86,0,0,1,.6-.3h-8.7Zm0-106.8h9.3q-2.1,0-3.9-.15t-3.6-.15h-1.2Zm.9,18.3h7.5v-.6h-8.1Zm.6,123.3h6.6a.61.61,0,0,0-.15-.45.61.61,0,0,1-.15-.45h-4.35a7.11,7.11,0,0,0-2.55.6Zm-.6-36.3h9a.27.27,0,0,1,.3-.3h.6l-1.5-.3h-8.4Zm.6-2.1.3.3h10.2l.6-.6h-5.25a27.82,27.82,0,0,1-5.25-.3H219l-.3.3Zm0-83.7.3.3h4.8a24.8,24.8,0,0,0,3.3-.3v-.3l-.6-.3h-7.2l-.6.3Zm.3-21h8.1l.6-.3h-8.1Zm.6,103.2h8.7a21,21,0,0,1,2.25.15,1.89,1.89,0,0,0,1.95-.75H219.9Zm6.6,41.4h1.2l-.6-.3h-6.9v.3ZM219.9,216h5.7l.3-.3-.3-.3h-5.7Zm2.4,78.6h10.5v-.3H220.5l.3.3Zm-1.8-102.9h8.1v-.6h-8.1ZM222,333q1.2,0,1.2-.6,0-.3-.9-.3t-.9.6Q221.4,333,222,333Zm10.5-39.9a.86.86,0,0,1,.6-.3l-1.2-.3H221.7q-.3,0-.3.6Zm-7.2-75.3.3-.3h-3.3q-.9,0-.9.3ZM221.7,291h11.4v-.3l-10.8-.3a.27.27,0,0,0-.3.3Zm.3,48.3.6.3h6.6V339h-6.6Zm.3-119.7h.9a4,4,0,0,0,2.1-.3h-3Zm.3-29.7,6.9.3.3-.9h-7.2Zm.3,13.8a.27.27,0,0,0,.3.3q.6.6,2.7,3.3a33.47,33.47,0,0,1,2.4,3.3,1.82,1.82,0,0,0,.45.9,7.88,7.88,0,0,1,.75,1.2l1.5,3a35.23,35.23,0,0,0,1.8,3.3l.3.3V219a.86.86,0,0,1,.3-.6.27.27,0,0,1,.3-.3q.9-1.8,2.4-4.35a18.83,18.83,0,0,0,2.1-4.95q-1.8-3.6-3.6-7.05T231,194.7l-.6-.6h-.3l-.3.3a.27.27,0,0,0-.3.3q0,.3-.15.3t-.15.3a3.49,3.49,0,0,0-.6.9q-.6.9-2.85,3.6t-2.85,3.3Zm.3,85.8h9.9v-.3a.86.86,0,0,0-.6-.3h-8.4a.86.86,0,0,0-.6-.3h-.3Zm4.2-109.2a6.44,6.44,0,0,0-1.2-2.1l-2.1-2.1-.9-.3Zm-3.6,107.4q.9,0,4.35.15t4.35.15h.9a.86.86,0,0,0,.3-.6,8.77,8.77,0,0,0-3-.3h-6.3q-.6,0-.6.3Zm6.9-99.9h.3q-.6,0-3-.15t-3-.15h-.6l-.6.3Zm-6,98.1.3.3h7.2a4.93,4.93,0,0,0,1.2-.15,1.34,1.34,0,0,0,.9-.75l-.6-.3h-2.4a15.93,15.93,0,0,0-2.25.15,12.4,12.4,0,0,1-1.65.15,9.43,9.43,0,0,0-1.5.15,9.2,9.2,0,0,1-1.2.15Zm.6-1.8h9.3l.3-.3h-9.6Zm1.8-97.65a4.88,4.88,0,0,0,2.4,0,9.43,9.43,0,0,1,1.5-.15h.6l-.3-.3h-5.1a.86.86,0,0,0-.6.3A9.43,9.43,0,0,1,227.1,186.45Zm-.6-5.25a.8.8,0,0,0-.9-.9,1.73,1.73,0,0,0,.6,1.2Zm5.7,3.6.6-.3a12.07,12.07,0,0,0-3.3-.3,8.77,8.77,0,0,1-3-.3h-.6a.8.8,0,0,0,.9.9Zm-6,38.1h.9q0-.6-.9-.6Zm0-3.3q.3,0,.3-.15t-.3-.15Zm8.7,63,.3-.3-.3-.6H228q-1.5,0-1.5.9Zm-8.1-58.2q0,.3,1.2.3Q228,224.4,226.8,224.4Zm0-8.4v.3l.3-.3a.27.27,0,0,0,.3-.3l-.6-.3Zm.3,64.2.3.3h2.7a15.93,15.93,0,0,1,2.25.15,13.85,13.85,0,0,0,2,.15h1.5a.86.86,0,0,0,.3-.6l.3-.3h-9Zm.3-97.2h6a.86.86,0,0,0-.3-.6h-3a4.08,4.08,0,0,1-2.7-.6h.3a1.73,1.73,0,0,0-.6,1.2Zm.6,95.7.3.3h8.1v-.3a.27.27,0,0,0,.3-.3h-.3a.27.27,0,0,0-.3-.3h-1.2q-1.8,0-3.45.15t-3.15.15Zm1.2-52.2q0-.3-1.2-.3Zm-.9-45.3h6q-.3,0-.3-.15t-.3-.15h-.6q-.6,0-2.4-.15t-2.4-.15Zm.6,38.4v-.3h-.3Zm0,57.6h7.8v-.3h-7.8Zm3.9-97.8h2.1l-.3-.3h-5.4v.3h3.6Zm-2.7,96h7.8a.27.27,0,0,0,.3-.3v-.3q-1.2,0-3.9-.15t-3.6-.15h-.3q-.6,0-.6.3Zm-.3-98.1.3.3.6.3h4.2q1.2,0,1.2-.6H231a.53.53,0,0,0-.6-.6h-.3Zm.6,96.3a13.9,13.9,0,0,0,2.7.3h4.35q1.05,0,1.05-.9h-8.1Zm0-97.5h3.45a5.63,5.63,0,0,0,2.55-.6l-5.1-.3a.27.27,0,0,1-.3.3.27.27,0,0,0-.3.3Zm.9,96h7.8l.3-.6a12.62,12.62,0,0,0-3-.3h-2.55a13.35,13.35,0,0,0-2.55.3Zm.3-79.2q2.1,3.9,3.75,7.5t3.75,7.5a56.12,56.12,0,0,1,2.85,6,56.12,56.12,0,0,0,2.85,6h.3q1.2,0,1.35-.9t.75-.9q.6,0,.75.75t.75.75l-1.5-3.3q.9,0,.9-1.2a4,4,0,0,0-.9-2.4q-.6-1.5-1.8-4t-2.4-5q-1.2-2.4-2.25-4.35a10.34,10.34,0,0,1-1.05-2.25,18.61,18.61,0,0,1-2.1-3.45,17.35,17.35,0,0,0-2.4-3.75.86.86,0,0,0-.3-.6,3.49,3.49,0,0,1-.6-.9l-.3-.3-.9,1.8a6.94,6.94,0,0,1-.9,1.5q-.3,0-.3.6a.86.86,0,0,1-.3.6Zm6.3-18.6-.3-.6h-4.5v-.3a.71.71,0,0,1,.6-.75,4.93,4.93,0,0,1,1.2-.15h3.3l-.6-.6-4.5-.3v.3a7.88,7.88,0,0,1-.75,1.2,2,2,0,0,0-.45,1.2ZM232.2,270H240l.3-.3h-8.1Zm.6-118.8a6.68,6.68,0,0,0,3,.6H243q0-.3.15-.3t.15-.3v-.3h-4.2a12.4,12.4,0,0,0-1.65.15,13.85,13.85,0,0,1-1.95.15h-2.7Zm.3,117a15.26,15.26,0,0,0,3,.3h4.5l.6-.6h-8.1Zm0-115.2v.3l.3.6.6-.6h9.6l.3-.3H233.1Zm1.8-3h6.45q2.25,0,4.8-.15t4.95-.15h3.3l.3-.3a12.4,12.4,0,0,1-1.65-.15,12.4,12.4,0,0,0-1.65-.15h-.6q-3.9,0-7.8.15t-8.1.15a2.59,2.59,0,0,1-1.8-.9v.9Q233.1,150,234.9,150Zm-1.5,91.8q.6.6.9.6h4.35a13.35,13.35,0,0,0,2.55-.3v-.6h-7.5Zm0-71.1.9.3h4.5l.3-.3v-.3q0-.3-.9-.3a15.93,15.93,0,0,0-2.25.15,15.93,15.93,0,0,1-2.25.15Zm.3-22.8h19.5v-.3H234.3Zm.3,118.8h7.2l.3-.3v-.3H234Zm0-26.4h6.3V240H234Zm5.7-71.7h-5.4a.86.86,0,0,0,.3.6.27.27,0,0,0,.3.3h4.5l.3-.6Zm2.4,75.6v-.9h-7.5v.6l.3.3Zm-7.2,21h3a8.77,8.77,0,0,0,3-.3q1.2,0,1.2-.3h0a.27.27,0,0,0-.3-.3h-6a2.3,2.3,0,0,0-.9.3Zm0-26.4h4.8l.3-.3a7.37,7.37,0,0,0-2.7-.6h-2.4Zm.3-84H237v-.3h-2.1Zm0,90.6.3.3h7.8v-.6h-7.8Zm0-78.3H240l.3-.3a9.86,9.86,0,0,0-2.4-.3h-2.7Zm.3,96h6l.6-.3h-6.6Zm0-26.4.6.3a12.84,12.84,0,0,1,1.35.15,12.84,12.84,0,0,0,1.35.15q0-1.2-1.8-1.2h-1.2l-.3.3Zm.3-71.4h5.1V165l-4.5-.3Zm.6,96h5.1V261h-5.1Zm1.8-13.8h5.7v-.6h-7.5q0,.9,1.2.9Zm-1.2-12h.3q.9,0,.9-.6,0-.3-.9-.3t-.9.6Zm-.6-71.7a13.9,13.9,0,0,0,2.7.3h2.4v-.6l-.3-.3H237Zm7.5,3.9L236.7,183v.3q0,.6.9,1.2l6.9,12.3h.3v-.3q.9-1.5,3.3-5.4t3.3-5.1v-.9q-2.4-4.2-4.5-8.55a29.25,29.25,0,0,1-2.7-9.15Zm-3.6,91.8h.6l-.3-.3h-3l-.6.3Zm-3-10.5.3.3.3.3h4.5a6.65,6.65,0,0,0,2.1-.3v-.6a.86.86,0,0,0-.3-.6,16.86,16.86,0,0,1-3.3.3,16.86,16.86,0,0,0-3.3.3Zm4.5-87,.3-.6h-4.8a.53.53,0,0,0,.6.6Zm-3.9-2.1.3.3H249q0-.3-.6-.3a.27.27,0,0,1-.3-.3h-9.9Zm.3,97.8q0,.3.75.3H240v-.6h-1.8Zm6.9-6.6q0-.6-.9-.6H243l-.6.3a.86.86,0,0,0-.6-.3h-3.6v.3a.27.27,0,0,0,.3.3Zm3.3-93-1.8-.3h-8.4a.8.8,0,0,0,.9.9h8.4a.61.61,0,0,0,.45-.15.61.61,0,0,1,.45-.15Zm-.3-13.5-.3-.3q0-.6-.3-.6h-8.7a.27.27,0,0,0-.3.3.86.86,0,0,1-.3.6Zm-9.3,12a2.44,2.44,0,0,0,1.8.6.86.86,0,0,1,.6-.3h.6a.27.27,0,0,1,.3-.3h1.2q.3,0,2.1.15t2.1.15h.9l.3-.3v-.3h-9.9Zm.3-1.8H249v-.3h-9.9Zm0-8.4h8.4l.6-.3v-.3a.27.27,0,0,0-.3-.3h-8.1a.86.86,0,0,0-.6.3Zm.3,106.2a7.8,7.8,0,0,0,2.4.3h2.1a12.91,12.91,0,0,0,2.4-.3l-.6-.6h-2.1a15.91,15.91,0,0,1-1.8-.15,3,3,0,0,0-2.1.45Zm0-22.8,4.5,9.3.3.3a5.86,5.86,0,0,0,.45-1.2,5.86,5.86,0,0,1,.45-1.2,10,10,0,0,0,1.5-3.15q.9-2.55,1.2-3.15l.3-.9a2,2,0,0,0-.6-1.5,10.29,10.29,0,0,1-1.05-2.1,25,25,0,0,0-1-2.4q-.6-1.2-1.2-2.7h-.3Zm0-87h6.9q.9,0,.9-.6h-7.8Zm.6,111.6h6.6a.53.53,0,0,0,.6-.6H240Zm.6,1.5.6.3h6.3l.3-.3h-.3l-.3-.3h-6.3Zm4.5-116.4h.3l.3-.3v-.3l-.3-.3h-2.85q-1.35,0-1.35.9ZM248.7,258v-.6h-7.2v.6Zm-3.6-120.3q0-.6-.3-.6h-2.4q-.9,0-.9.6Zm-3,121.8h.3a4.93,4.93,0,0,1,1.2.15,4.1,4.1,0,0,0,.9.15h2.55a13.35,13.35,0,0,0,2.55-.3l-.3-.6h-4.5a11.15,11.15,0,0,0-2.7.3ZM244.2,135q-1.5,0-1.5,1.2Q244.2,136.2,244.2,135ZM243,261.3q0,.3.9.3h.9q.6,0,2.55-.15t2.55-.15a.27.27,0,0,0,.3-.3h-6.9v.3Zm1.8-99.3h.6a.61.61,0,0,1,.45.15.61.61,0,0,0,.45.15.86.86,0,0,1,.6-.3h1.8q.6,0,.6-.3v-.6h-.6q-.6,0-2.4.15t-2.4.15Q243.9,162,244.8,162Zm-.6,1.8.3.3h4.8l.6-.6a2.45,2.45,0,0,0-1.8-.45,9.43,9.43,0,0,1-1.5.15h-1.8q-.6,0-.6.3Zm.3,99.3h6.6v-.6q-1.5,0-3.3.15t-3.3.15Zm0-97.8h5.4q0-.6-.3-.6h-5.1Zm.3,1.8h5.7l-.3-.3a.27.27,0,0,1-.3-.3h-4.5Zm0-15.9h.9q0-.3-.9-.3Zm.3,113.4h6.6l-.3-.3h-6.3Zm.3,1.5.6.6h6l.3-.3a.27.27,0,0,1,.3-.3h-7.2Zm.3-97.2a2.66,2.66,0,0,1,1.2.3,2.66,2.66,0,0,0,1.2.3h.3a.27.27,0,0,1,.3-.3h1.2a.86.86,0,0,1,.6-.3h.6v-.3h-5.4Zm.3,75,.3.3h3a.27.27,0,0,0,.3-.3q0-.6.3-.6V243q-.3,0-.3.15t-.3.15H249a3.34,3.34,0,0,1-1.5.3H246Zm0-3.6h.3V240H246Zm4.5-69.3q1.2,0,1.2-.6l-.3-.3h-.9q-.6,0-2.4-.15T246.3,171Zm-3.9,96.9v.6h6q.9,0,.9-.6Zm0-22.2h.9q0-.6-.9-.6Zm0-92.4h8.1l.3-.3-.3-.3h-3.9a9.86,9.86,0,0,0-2.4.3h-1.8Zm0-2.1a29.16,29.16,0,0,0,3.45.45q1.95.15,3.45.15,1.2,0,1.5-.6l-.3-.3h-7.8Zm.3,50.1.6-.6a9.81,9.81,0,0,1,.6-1,9.81,9.81,0,0,0,.6-1.05l.6-1.2v-.6q-.6,0-.6.9a7,7,0,0,0-1.2,1.8,5.26,5.26,0,0,0-.6,1.5Zm.3-28.8h4.2v-.6h-2.1a7.8,7.8,0,0,0-2.4.3Zm0,97.5h7.2v-.6q-1.8,0-3.6.15t-3.6.15Zm1.8-23.1h-1.5q0,.9,1.5.9Zm-.9-4.5q.6,0,.6-1.2-1.2,0-1.2.9Zm-.6-7.2h4.2a24.35,24.35,0,0,0,3-.3v-.3h-7.2Zm.6-40.2a.3.3,0,1,0-.3.3A.27.27,0,0,0,248.1,195Zm2.7-20.7q0-.6-.3-.6h-3l.3.6Zm-2.1,97.8h.6a3.74,3.74,0,0,1,1.65-.3H255l.3-.3-.3-.3h-4.35a13.35,13.35,0,0,0-2.55.3A.53.53,0,0,0,248.7,272.1Zm.3-27-.3-.3q-.6,0-.6.9Q249,245.7,249,245.1Zm-.9-4.8h4.2V240h-3.9Zm6.9-6.9.3-.3a6.13,6.13,0,0,0-2-.3h-4q-1.2,0-1.2.6Zm-6.9-57.6h2.1v-.3h-1.8Zm.3,60.3a.8.8,0,0,0,.9.9h3.9q.6,0,.6-.9Zm.9-15.9a.3.3,0,1,0-.3.3A.27.27,0,0,0,249.3,220.2Zm29.25-55.95q-2.25.45-5.25,1.35l-.6.3a97.05,97.05,0,0,0-13.95,12.15A49.39,49.39,0,0,0,248.7,192.9h.9v1.5l.3.3v.6q0,.3.15.3t.15.3h.6a.27.27,0,0,1,.3.3.86.86,0,0,0,.3-.6.27.27,0,0,1,.3-.3q.3-.6,1.35-2.25t2.25-3.3q1.2-1.65,2.1-3.15t1.2-2.1l1.5-1.5a29.36,29.36,0,0,1,8.25-9q5.85-4.5,11.55-4.5v.6q-.3.6-3.3,1.35a26.26,26.26,0,0,0-3.6,1.05,36.67,36.67,0,0,0-9.15,7.8q-3.75,4.5-7.35,9.6l-2.4,3.6q-1.2,1.8-2.4,3.9h.3a1.3,1.3,0,0,0,1.05-.6,8.77,8.77,0,0,1,.75-.9q.3-.6,1.65-3.15t1.65-3.15q.6-.9,2.7-3.6t2.7-3.3a72.54,72.54,0,0,1,5.55-5.55,25.26,25.26,0,0,1,6.45-4.35,11,11,0,0,1,3-.75,7.7,7.7,0,0,0,2.7-.75h4.2a11.45,11.45,0,0,1,4.05,1Q291,173.4,291,175.5q0,1.2-.6,1.2a1,1,0,0,1-.9-.45,1.35,1.35,0,0,0-1.2-.45q-3.6,0-3.6,3.9a3.88,3.88,0,0,0,1.95,3.75A9,9,0,0,0,291,184.5a5.89,5.89,0,0,0,5.4-3,12.06,12.06,0,0,0,1.8-6.3,7.66,7.66,0,0,0-1.8-4.5,21.28,21.28,0,0,0-4.95-4.65,13.15,13.15,0,0,0-6.15-2,2.47,2.47,0,0,0-.15-.75q-.15-.45-.45-.15l-.3.3a.27.27,0,0,0-.3.3A28.89,28.89,0,0,0,278.55,164.25ZM252.45,273.9a21,21,0,0,0,3.45-.3V273h-6a.8.8,0,0,0-.9.9ZM249,231.3l.3.3h6a.61.61,0,0,0,.45-.15.61.61,0,0,1,.45-.15,9.86,9.86,0,0,0-2.4-.3h-4.2Zm.6-10.5a.3.3,0,1,0-.3.3A.27.27,0,0,0,249.6,220.8Zm3,18q.6,0,.6-.9h-3.6q-.3,0-.3.9Zm-2.7-17.55q0-.15-.3-.15t-.3.15.3.15Q249.9,221.4,249.9,221.25Zm-.3-25.05q-.3,0-.3.15t.3.15Zm1.5-18.6q0-.6-.75-.6h-1a.53.53,0,0,0,.6.6,2.66,2.66,0,0,1,1.2.3Zm5.7,52.2a.27.27,0,0,0-.3-.3H252a2.66,2.66,0,0,1-1.2-.3q-.9-.6-.6-.9-.3,0-.3.9a.86.86,0,0,1-.3.6Zm-6.9-8.4q-.3,0-.3.45t.3.45Zm6.9,53.7v-.3l-.3-.3h-6.6v.6Zm-6.9-52.2a.3.3,0,1,0,0-.6Zm0-14.7a84.39,84.39,0,0,1,3.6,9h.3a5.65,5.65,0,0,0,1.95-2.55,13.78,13.78,0,0,1,1.65-3.15q1.5-2.1,3.45-4.5a32.49,32.49,0,0,1,4-4.2,2.46,2.46,0,0,0-.9-1.5q-.3,0-1.35-1.35t-1.35-1.65q-.3-.3-1.05-1.2t-1.05-1.2h-.6a.27.27,0,0,0-.3.3H258v-1.8a13.71,13.71,0,0,0-2.55,3.6q-1,2.1-2.25,4.2a11.64,11.64,0,0,0-.6,1.5,3.77,3.77,0,0,1-.9,1.5,5.52,5.52,0,0,1-1,1.35,2.07,2.07,0,0,0-.75,1.35Zm.3,44.7,4.5,8.4.3,1.8,15.6,35.7,1.2,3.6h.3q.6,0,1.2-1.2l5.1-10.8v-.3a3.32,3.32,0,0,0-.15-1.05,3.32,3.32,0,0,1-.15-1.05q-.6-1.2-2.25-4.65A46.28,46.28,0,0,0,273.6,279a5.26,5.26,0,0,1-.3-1.65,3,3,0,0,0-.6-1.65q-.6-.9-2.1-3.75t-2.1-4.05l-.3-.6-.3-.9q-.6-.9-2.4-4.35t-2.4-4.35q-1.8-3.9-3.75-7.8T255,242.1v-.3a7,7,0,0,0-1.05,1.35q-.45.75-.75,1.35a11.48,11.48,0,0,1-1,3q-1.05,2.4-1.65,3.6a3.34,3.34,0,0,0-.3,1.5Zm.9-29.1-.9-.9q0,.9.6.9Zm-.6,4.2q.6,0,3.45.15t3.45.15h.3V228h-7.2Zm.9-72.9a.27.27,0,0,1,.3-.3h1.2l.3-.3h-2.7a.53.53,0,0,0,.6.6Zm-.3,122.1h6.3l.3-.3q0-.6-.3-.6h-4.5a4.83,4.83,0,0,1-2.1.6Zm.3,3,.3.3h7.5l-.6-.6h-6.9Zm.3-1.2h.3q.9,0,3.15-.15t2.85-.15v-.3q0-.3-.6-.3h-.9q-.6,0-2.55.15t-2.55.15Q251.4,279,251.7,279Zm-.3-52.8h.9l-.9-.9Zm0-43.8a.53.53,0,0,0,.6.6A.53.53,0,0,0,251.4,182.4Zm0-3.6q0,.6.3.6Zm.3,115.8h13.5v-.3q-1.2,0-4.65-.15T255.9,294H255a15.26,15.26,0,0,0-3,.3Zm.6-69.9h7.2v-.3a18.86,18.86,0,0,0-3-.3h-4.05q-.75,0-.75.9Zm-.3-50.55q0,.15.3.15v-.9l-.6.6Q252,174,252,174.15Zm0,108.15a12.91,12.91,0,0,0,2.4.3h4q1.35,0,1.35-.9h-7.5a.27.27,0,0,0-.3.3Zm0-101.7q0,.6.9.6Q252.9,180.6,252,180.6Zm8.7,103.5.3-.3-.3-.3h-7.2a1.73,1.73,0,0,0-1.2.6Zm.6,1.5q.3,0,.3-.6h-8.1a.53.53,0,0,0-.6.6Zm-7.5,10.8h11.4q.3,0,.3-.15t.3-.15v-.3a5.66,5.66,0,0,0-1.8-.3h-.9q-1.2,0-5,.15t-4.95.15Zm1.8-3.6H258a5.15,5.15,0,0,1,2.1.3l4.8-.3-.3-.3H253.2q0,.6,1.5.6A2.3,2.3,0,0,1,255.6,292.8Zm7.8-1.8v-.9q-2.1,0-5.1-.15a9.17,9.17,0,0,0-5.1,1.05Zm-9.9-1.5H261a2.47,2.47,0,0,0,.75-.15,2.47,2.47,0,0,1,.75-.15l.3-.3-.9-.3h-5.55a16,16,0,0,0-3.15.3Zm8.7-1.8v-.6h-8.7q-.3,0-.3.6Zm-9-64.8h7.2a.53.53,0,0,0,.6-.6h-6.9a.53.53,0,0,1-.6-.6q-.3,0-.3.6Zm0-39.9h.3v-.6h-.3Zm0-6q0,.9,1.2.9Q254.4,177,253.2,177Zm8.7,44.1v-.3h-7.5l-.6-.6h.3a1,1,0,0,0-.6.9Zm-7.8-39.9h.6v-.6h-.6Zm1.2-2.1h-.9q0,.3.9.3Zm7.5,40.5.3-.3q0-.6-.9-.6a4.93,4.93,0,0,0-1.2.15,4.93,4.93,0,0,1-1.2.15,15.93,15.93,0,0,1-2.25-.15,15.93,15.93,0,0,0-2.25-.15q-.6,0-.6.9Zm-6.15-1.8h7.05l.9-.6h-8.4a.27.27,0,0,0-.3.3Q255.9,217.8,256.65,217.8Zm-.45,80.4h.6a24.24,24.24,0,0,1,4.8-.3h4.8v-.6h-6.6a4.65,4.65,0,0,1-1.95.3H256.2Zm.3-82.2h8.7l.6-.6-.9-.3h-7.8a.27.27,0,0,0-.3.3l-.3.3Zm9,123.6.6-.3V339q-.9,0-3.75-.15t-4.05-.15q-1.2,0-1.2.9Zm-6.9-39.9h9l-.3-.3h-9.6v.3l.3.3Zm8.4-85.5v-.6h-8.7a.53.53,0,0,0-.6.6Zm1.2-1.5v-.6h-9a.53.53,0,0,0-.6.6Zm-9.6-19.5h6.9l.3-.3h-6.6Zm.9,108h8.7a.86.86,0,0,0-.6-.3h-8.4Zm3-106.2.3.9q0-.3.6-.3a.27.27,0,0,0,.3-.3,5.82,5.82,0,0,1,1.8-.45,15.91,15.91,0,0,1,1.8-.15l-.6-.3h-7.2l.3.3v.3Zm-2.7,142.8h8.4v-.6h-8.1Zm0-127.2h10.8a.86.86,0,0,0,.3-.6H260.1a.27.27,0,0,0-.3.3Zm0-18.9h.9a4.1,4.1,0,0,0,.9-.15,4.93,4.93,0,0,1,1.2-.15H264l.6-.3h-4.2a.27.27,0,0,0-.3.3Zm.9,111.6h7.2q.9,0,.9-.6a9.86,9.86,0,0,0-2.4-.3h-.9q-.6,0-2.55.15t-2.55.15ZM264,196.8h2.55a13.35,13.35,0,0,0,2.55-.3l-.3-.3h-7.5v.3h.6a.61.61,0,0,1,.45.15.61.61,0,0,0,.45.15Zm-.6-7.2q0-.6-1.2-.6-.9,0-.9.6ZM261.6,336h7.5a.53.53,0,0,0-.6-.6l-.3-.3h-6.6Zm.3-31.5-.3.3v.3l.3.6h.3a30.1,30.1,0,0,1,3.15-.75,20.34,20.34,0,0,1,2.85-.45h-6.3Zm0-95.7h11.4l-.3-.6H266a35.36,35.36,0,0,0-4.35.3Zm1.2,30.3a.3.3,0,1,0-.3.3A.27.27,0,0,0,263.1,239.1Zm-.6-41.1a1.21,1.21,0,0,0,1.2.6h.9q.6,0,3.15-.15t3.45-.15V198h-8.7Zm.3,136.2H270l.3-.3-.3-.3h-6.9a.27.27,0,0,0-.3.3Zm.3-26.4v.3H270a.27.27,0,0,0,.3-.3,25.83,25.83,0,0,1-2.85-.15,23.14,23.14,0,0,0-2.55-.15h-1.8Zm1.8,24.9a25.83,25.83,0,0,0,2.85-.15,25.83,25.83,0,0,1,2.85-.15v-.3h-7.2l.6.6Zm-1.5-23.1.3.3h14.4a.27.27,0,0,0-.3-.3H263.4Zm0-102.3h29.4l.3-.3-.9-.3H263.4Zm10.5-7.2-.6-.6h-9a.53.53,0,0,0,.6.6Zm-9,129.3q-.3,0-.3.15t.3.15Zm-.3-18,.3.3h12l.3-.3H264.6Zm.3,19.5h6v-.3q0-.3-.6-.3H270a9.1,9.1,0,0,0-2.7-.3h-2.4Zm0-1.8h4.5q2.7,0,4.65.15a13.71,13.71,0,0,0,4.35-.45l-.3-.3H264.9Zm0-15.3q0,1.5.6,1.5h10.2l.3-.3-.3-.3H265.5v-1.2h11.1q0-.6-1.5-.6H264.9Zm12,13.5-.3-.6h-9.3a4.61,4.61,0,0,0-1.8.6Zm-11.4-10.5H276v-.3H265.5Zm10.5,9v-.6H265.8q0,.6.9.6Zm-10.2-3.9a18.86,18.86,0,0,0,3,.3h5.1a1.33,1.33,0,0,0,.6-.15,1.33,1.33,0,0,1,.6-.15h.6v-.3h-9.6Zm.3-1.5h9.6a4.14,4.14,0,0,0-3-.9,32.33,32.33,0,0,0-3.45.15q-1.35.15-3.45.45Zm-.3-2.1a25.35,25.35,0,0,0,3.45.3h6.15a.86.86,0,0,0,.3-.6h-9.9Zm.3,5.7h9q.3,0,.3-.15t.3-.15a.53.53,0,0,0-.6-.6h-.3q-1.2,0-4.5.15t-4.2.15Zm.3-122.4a8.36,8.36,0,0,0,3.6.6h1.2q2.1,0,5.25-.15t6.15-.15h7.2l3.3-.3a2.37,2.37,0,0,0-1.5-.3H268.2Zm6,3.9.9-.3.6.3h11.4q4.5,0,9-.3.9,0,.9-.6H267.9q-1.2,0-1.2.9Zm19.8-2.7H271.5l-1.2.3a.86.86,0,0,0,.6.3,9.2,9.2,0,0,1,1.2.15,9.2,9.2,0,0,0,1.2.15h21.6l.6-.3q-.3-.6-1.5-.6h-1.8Zm-19.8,105h0Zm0,22.5a.8.8,0,0,0,.9.9h4.5a.8.8,0,0,0,.9-.9Zm7.8-25.5v-.3h-6.9a.27.27,0,0,0-.3.3ZM291,294.45a4.92,4.92,0,0,0-.6-.75q-.3-.6-1.2-2.1t-1.2-2.1l-15-30v.6a11.64,11.64,0,0,1,.6,1.5,4.91,4.91,0,0,1,.3,1.2L288,290.4a8.6,8.6,0,0,0,3.6,4.8A4.92,4.92,0,0,1,291,294.45ZM273,252.6l11.7,24.9.3.3h.3a11.76,11.76,0,0,1,1.2-2.7L297.6,252a11.64,11.64,0,0,0,.6-1.5,4.94,4.94,0,0,0,.3-1.5q0-1.2-1.95-2.1a4.35,4.35,0,0,0-2.85-.6h-.3a.27.27,0,0,0-.3.3q-.3.3-1.8,1.5t-1.5,1.5a14.92,14.92,0,0,1-3.15,2,35.33,35.33,0,0,1-3.45,1.35H276a4.4,4.4,0,0,1-1.65-.3,3.68,3.68,0,0,0-1.35-.3Zm.6,50.4.3.3h5.4a2.66,2.66,0,0,1,1.2-.3,1.22,1.22,0,0,0,.9-.3v-.3h-3.3a7,7,0,0,0-1.35.15,7,7,0,0,1-1.35.15h-1.5Zm1.2-1.8q.6,0,2.55.15t2.55.15h.9a.86.86,0,0,1,.6-.3h.3v-.3h-6.9Zm.9-1.5H282v-.3h-6.3Zm.9-1.8h4.5l.3-.3v-.3h-4.8Zm4.5-1.8q0-.3-.15-.3t-.15-.3h-2.25a1.65,1.65,0,0,0-1.05.6Zm-3-1.5h2.1a.8.8,0,0,0-.9-.9h-1.2Zm16.8,21.6a15.77,15.77,0,0,1,2.4-3,4.32,4.32,0,0,1,3-1.5,6.57,6.57,0,0,1,4.35,1.65,5.11,5.11,0,0,1,2,4v.6l-.3.3-1.5-3.3a4.53,4.53,0,0,0-1.8-1.5,4.61,4.61,0,0,0-1.8-.6q-4.5,0-4.5,3.9,0,2.7,1.2,3a6.31,6.31,0,0,1,2.7,1.8,12.66,12.66,0,0,1,2.4,3.3,4.94,4.94,0,0,1,.3,1.5,4.06,4.06,0,0,1-2.4,3.9,7.6,7.6,0,0,1-4.5.9,25.13,25.13,0,0,1-1.95,5.1,21,21,0,0,1-3.45,4.95,18.75,18.75,0,0,1-4.5,3.6,10.24,10.24,0,0,1-5.1,1.35,9.1,9.1,0,0,1-2.7-.3l.6-.9q7.2-.6,10.8-5.7a2.46,2.46,0,0,0,.9-1.5l-3.3,3.6v-.6a2.82,2.82,0,0,1,.75-1.8q.75-.9,1.35-1.5a14.66,14.66,0,0,0,1.65-4.2q.45-2.1,1.05-4.2.6.6.6-.15t.6-.75h.3l1.8,1.5a1.74,1.74,0,0,0,1.2.3,7.34,7.34,0,0,0,3.45-.6q1.05-.6,1.05-3a7.44,7.44,0,0,1-5.85-2.55,9,9,0,0,1-2.25-6.15,2.45,2.45,0,0,1,.3-1.35,9.81,9.81,0,0,0,.6-1.05,3,3,0,0,0,.3-1.35q0-.75,1.2-.75a1,1,0,0,1-.45.9,1,1,0,0,0-.45.9,10.53,10.53,0,0,0-.3,3,9.51,9.51,0,0,0,1.95,5.25q1.95,2.85,4.65,2.85a.27.27,0,0,0,.3-.3v-.6a9.3,9.3,0,0,1-4.65-2.55,6.71,6.71,0,0,1-2-4.95Zm-15.6-108a.3.3,0,1,0-.3.3A.27.27,0,0,0,279.3,208.2Zm-.3,84.6h.9q0-.3-.9-1.2Zm6.3-92.7.9-.6h-5.4q-.3,0-.9-.6l.3-.6h6.3l.3-.3h-7.2a7,7,0,0,0,.15,1.35.92.92,0,0,0,1.05.75Zm1.2-3.6v-.3h-5.7q-.6-.6-.9-.6v-.3q-.3,0-.3,1.2Zm.9,13.8-.3-.3h-2.4a13.85,13.85,0,0,1-1.95-.15,12.4,12.4,0,0,0-1.65-.15h-.3q-.9.9-.9.6Zm-7.5-15.6h6.3l-.3-.3-.3-.3-5.4.3Zm.3,18h3.6a16.86,16.86,0,0,0,3.3-.3v-.3l-.3-.3h-6q-.6,0-.6.3Zm3.45-3.75q2.55.15,3.15.15t.6-.9h-3.6a9.69,9.69,0,0,0-3.6.6Q281.1,208.8,283.65,209ZM281.7,164.4a18.92,18.92,0,0,1,9.75,2.55,15.29,15.29,0,0,1,6.45,7.65q0,.9-.6.9H297a16.9,16.9,0,0,0-4.5-6.6,13.32,13.32,0,0,0-7.2-3.3,4.1,4.1,0,0,1-.9-.15,4.93,4.93,0,0,0-1.2-.15h-1.8a1.33,1.33,0,0,1-.6-.15,1.33,1.33,0,0,0-.6-.15A2,2,0,0,1,281.7,164.4ZM285,180q0-3.6,4.2-3.6,0,1.2-1.35,1t-1.35,1.05a3.74,3.74,0,0,0-.3,1.65v1.35h-.6a.86.86,0,0,0-.6-.3Zm2.4,121.8a6.18,6.18,0,0,1,1.8,2.4q.9,1.8,1.8,3.75a36.59,36.59,0,0,1,1.5,3.75,9.52,9.52,0,0,1,.6,2.7v.3a3.25,3.25,0,0,1-1.5-1.2,4.55,4.55,0,0,0-.45-1.65q-.45-1.05-.75-1.65l-1.35-4.05a20.72,20.72,0,0,0-1.65-4Zm2.4-101.4a.86.86,0,0,1,.6-.3h.3l.3-.3a2.37,2.37,0,0,0-1.5-.3,5.15,5.15,0,0,0-2.1.3A4.27,4.27,0,0,0,289.8,200.4Zm0,80.1v-.9h-.3l-.9.3h-.3v-.3H288q-.3,0-.3.6Zm-.9,1.8q0-1.2-.3-1.2-.6,0-.6,1.2Zm-.9-5.1q.3,0,.3-.9H288Zm.6-2.1h.6v-.6Zm.9,8.7v-.6a.53.53,0,0,0-.6.6Zm13.2-12a.27.27,0,0,1,.3-.3v-.3H290.1a.53.53,0,0,0-.6.6Zm-4.5,38.4a6.19,6.19,0,0,1-2.25-1.8q-1.35-1.5-2.7-3.3t-2.4-3.3a4.84,4.84,0,0,1-1.05-2.1v-.3a9.83,9.83,0,0,1,1.5,1.2l1.2,1.2v-.3q-.3-.3-.3-.45t-.3-.45a1.22,1.22,0,0,1-.3-.9v-.3a18.93,18.93,0,0,1,3.9,4.65,18.93,18.93,0,0,0,3.9,4.65v.3q0,.3.15.3t.15.3a.61.61,0,0,1-.45-.15.61.61,0,0,0-.45-.15.86.86,0,0,0-.6-.3h-.3l.3.6v.6Zm-8.4-22.8q.6,0,.6-.9h-.6Zm0-14.1H303V273H289.8Zm.3,5.4h.3v-.6h-.3Zm.3-4.2v.3l1.2.3h1.5a4.93,4.93,0,0,1,1.2.15,4.93,4.93,0,0,0,1.2.15q.9,0,3.15-.15t2.55-.15h1.2a1.74,1.74,0,0,0,1.2-.3l-.3-.3H290.4Zm4.5-4.65q3.6-.15,4.8-.15h3v-.3q-.9,0-4.35-.15T294,269.1h-.9a12.4,12.4,0,0,0-1.65.15q-1.05.15-1.05.75Q291.3,270,294.9,269.85ZM291.6,285a.8.8,0,0,0-.9.9A.8.8,0,0,0,291.6,285Zm0-4.8v-.6l-.6.6Zm-.6-3q.9-.6.9-.9H291Zm15.15-12.6a21.61,21.61,0,0,0-.45,3.3V270a13.59,13.59,0,0,0,1.2,5.85,11.59,11.59,0,0,1,1.2,4.95,1.73,1.73,0,0,1-.6,1.2,4.7,4.7,0,0,1-1.2.9,1.22,1.22,0,0,0-.9-.3h-.3q-.9,0-2.4.15t-1.8.15a13.15,13.15,0,0,0-2.4,1.2q-1.5.9-3.15,2.1a16.36,16.36,0,0,0-2.7,2.4,3.44,3.44,0,0,0-1,2.1.53.53,0,0,0,.6.6,81.39,81.39,0,0,0,6,7.2,11.1,11.1,0,0,0,8.4,3.9q6.3,0,8.7-5.4a26.4,26.4,0,0,0,2.4-10.8,47,47,0,0,0-7.8-26.1,5.8,5.8,0,0,1-.75-1.05,1.27,1.27,0,0,0-1-.75v.3a1.88,1.88,0,0,0-.45.75,1.88,1.88,0,0,1-.45.75.86.86,0,0,0-.3.6,1.22,1.22,0,0,0-.3.9A23.48,23.48,0,0,1,306.15,264.6ZM292.5,283.8v-.6q-.9,0-.9.6Zm-.9-15.9H303v-.3H291.6Zm11.7-1.5v-.3a33.56,33.56,0,0,0-5.55-.3H292.2q-.3,0-.3.6Zm.9,12.3.3-.3-.3-.3h-12a1.73,1.73,0,0,1,1.2.6Zm-9.6-1.5a.86.86,0,0,0,.6-.3h8.1l.3-.3v-.3h-3.3l-.3.3-.6-.3h-6.6v.6h.3a1.22,1.22,0,0,1,.9.3Zm-1.8-12.6h10.5V264H293.1Zm.9,17.4v-.9q-.6.6-.6.9Zm.6,1.8v-.6a.53.53,0,0,0-.6.6Zm-.6-21h9.9v-.3h-9.9Zm.3,17.7h9.9q.3,0,.9-.6l-.3-.3H294Zm10.2-19.2V261a17.43,17.43,0,0,0-4.2-.3h-4.8a.53.53,0,0,0-.6.6Zm-8.85,20.85a.61.61,0,0,0,.45.15h2.1a.27.27,0,0,1,.3-.3h1.2v-.3q0-.6-.75-.6h-1a9.43,9.43,0,0,0-1.5.15,1.51,1.51,0,0,0-1.2.75A.61.61,0,0,1,295.35,282.15ZM307.8,305.4a1,1,0,0,1,.75-.3q.45,0,.75-.6h-5.7a8.07,8.07,0,0,1-4.5-1.65q-2.4-1.65-3.9-2.85.6,2.4,4.65,3.9a19.61,19.61,0,0,0,5.85,1.5Zm-12.6-46.2.6.3h8.7q.3,0,.3-.6h-9Zm1.2-1.2h5.4a3.32,3.32,0,0,0,1.05-.15,3.32,3.32,0,0,1,1-.15h1.5l.3-.3-.3-.6H297l.6-.6a.86.86,0,0,1,.6-.3H306v-.3a17.43,17.43,0,0,0-4.2-.3h-4.5a2.88,2.88,0,0,0-.9,2.1Zm1.8-3.9H306q.6,0,.6-.3h.3l-.3-.3q-.6,0-3.15-.15T300,253.2h-1.8Zm2.7-12.9h-.3a2.88,2.88,0,0,1-2.1-.9,13.33,13.33,0,0,1,1.35,1.65A2.3,2.3,0,0,0,301.8,243q0-3-1.8-3.3Zm-2.1,11.1h8.4l.6-.3-.9-.3h-6.6a2.66,2.66,0,0,0-1.2.3Zm.9-1.8a.86.86,0,0,1,.6.3.86.86,0,0,0,.6.3h.6q.6,0,3.3-.15t3.3-.15a.53.53,0,0,0,.6-.6H300ZM301.2,239a11.26,11.26,0,0,1-1.2-1l1.2,1.2a4.7,4.7,0,0,0,1.2.9A11.26,11.26,0,0,0,301.2,239Zm-.9,9.75h9.6v-.3h-9.6Zm.9-1.5h9.6l.3-.6h-8.7a.53.53,0,0,1-.6-.6v-.3a39.89,39.89,0,0,1,4.95-.3h4.95v-.6q0-.3-.9-.3h-.6q-.9,0-4.05.15t-4.35.15A5.33,5.33,0,0,0,301.2,247.2Zm2.4-11.1h.3a1.06,1.06,0,0,0-1.2-1.2h-.3Zm-.9,7.2h.3a.53.53,0,0,0,.6.6h6.3l.6.3.6-.3a1.22,1.22,0,0,1,.9-.3h.9l-.3-.3-.3-.3H303Zm.9-1.5h10.5v-.3H303.6Zm12.3-1.5V240q0-.3-1.5-.3h-2.1q-.9,0-4.2-.15t-4.2-.15a.8.8,0,0,0,.9.9Zm-11.1,40.8a.8.8,0,0,0,.9.9Q305.1,281.1,304.8,281.1Zm0-42.6h11.4a9.87,9.87,0,0,0-3-.6h-8.4Zm.3-2.1,1.5.3h12.6q-.3-.6-3.3-.6H305.7Zm.9-1.5h8.1v-.3h-7.8l-.6-.3h.3Zm.3-1.8h4.2a22,22,0,0,1,4.5.3l.3-.6-.3-.3h-8.1v-.9h9.3l.3-.3a4.83,4.83,0,0,0-2.1-.6h-7.5a2.93,2.93,0,0,0-.6,2.1Zm.3-48.6h.6v-.6h-.6Zm.3,1.5.3.3h2.7v-.6h-2.7Zm.9,43.8q.9,0,4.5-.15t4.5-.15q.9,0,.9-.3h-9.6q-.9,0-.9.6Zm.9-2.1q-.9,0-.9.3h11.7a1.18,1.18,0,0,0-1.2-.9H318q0,.3-.9.45a9.2,9.2,0,0,1-1.2.15Zm3.3-39.9h.9l-.3-.3a9.1,9.1,0,0,0-2.7-.3h-1.2q-.9,0-.9.6Zm-3.6,38.1q.3.6,1.35.45a12.4,12.4,0,0,1,1.65-.15,4.1,4.1,0,0,1,.9.15.89.89,0,0,0,.9-.15h11.1l-1.2-.6H308.7Zm0-36a25.83,25.83,0,0,0,2.85-.15,25.83,25.83,0,0,1,2.85-.15q0-.9-1.2-.9a8.16,8.16,0,0,0-2.25.3,8.16,8.16,0,0,1-2.25.3Zm3.9,34.8h7.5a1.73,1.73,0,0,0-1.2-.6q-2.7,0-5-.15t-4.95-.15q0,.9.6.9Zm-3-1.8h4.5v-.3l-.6-.3h-3.9Zm5.4-30v-.3h-5.4a.27.27,0,0,0,.3.3h5.1Zm-5.1,28.2h4.8v-.3h-4.8Zm1.8,95.4a15.24,15.24,0,0,0-.15-2.4,12.4,12.4,0,0,0-.75-2.4,4.83,4.83,0,0,1-.6-2.1,2.76,2.76,0,0,1,2.1,1.95,8.56,8.56,0,0,1,.6,2.85,2.37,2.37,0,0,1-.3,1.5.53.53,0,0,1-.6.6Zm-1.5-97.2H315a.86.86,0,0,1,.6-.3q.3,0,.3-.15t.3-.15h-6.3Zm0-1.8h.3q0-.6-.3-.6Zm0-21.3.3.3h4.5l.6-.3h-5.4Zm0-1.5H315v-.6h-3.15a13.17,13.17,0,0,0-2,.3Zm.3,21h6.3v-.6h-6.3Zm.3-1.5h6.9a.53.53,0,0,0,.6-.6l.3-.3h-7.8Zm9-1.8.6-.3-.3-.3h-9q-.3,0-.3.6Zm-9-2.1h9.9l.3-.3-.3-.3h-9.9Zm0-6.9h6.3l.3-.3-.3-.3h-6.3Zm0-3.9v.3q0,.3.6.3a21.93,21.93,0,0,0,2.7-.15,21.93,21.93,0,0,1,2.7-.15q0-.3-.6-.3h-5.4Zm9.3,9.3q0-.6-.3-.6h-8.7q0,.6.3.6Zm-9-1.5h3.9a29.66,29.66,0,0,0,4.2-.3l-.3-.6h-7.5a.27.27,0,0,0-.3.3Zm0-2.4h7.5l-.3-.3h-6.9Zm6.3-3q0-.6-2.1-.6h-3.9q-.3,0-.3.6Zm-4.8,15.6h3.9v-.3h-3.6Zm1.5,84.6a.3.3,0,1,0-.3.3A.27.27,0,0,0,313.8,302.1Zm.3-.3a.3.3,0,1,0-.3.3A.27.27,0,0,0,314.1,301.8Zm.9-66.9h7.2v-.3h-6.9Zm1.5-12h.6v-.3a2.37,2.37,0,0,0-1.5-.3h-.3q-.3,0-.3.6Zm0-1.8v-.3H315v.3Zm2.7,10.2H321l.6.3v.9H318a.27.27,0,0,1-.3.3v.3h2.4a6.24,6.24,0,0,1,2.4.3h.6a2.44,2.44,0,0,0,1.8-.6q0-.3-.45-.3t-.45-.3q0-.3.45-.45t.45-.45H330a27.69,27.69,0,0,0-3.9-.3h-6.6Zm1.2-3.3h0Zm1.2,0h4.8v.9h-5.7l-.6.6h3.15q2.25,0,4.65.15t4.8.15h5.4a.53.53,0,0,0-.6-.6h-1.2a4.93,4.93,0,0,0-1.2.15,6.31,6.31,0,0,1-1.5.15q-1.5,0-3.15-.15T327,228.9q.6-.9,2.7-.9h7.8q-3.6,0-7.05-.3t-7.05-.3h-.9a.86.86,0,0,0-.6.3Zm1.5-3.6.9.3h10.5q-.3-.9-2.1-.9h-5.1a15.26,15.26,0,0,0-3,.3Zm14.4,1.8a.86.86,0,0,0-.3-.6h-7.5a15.61,15.61,0,0,0-4.8.6Zm-11.4-3.6.6.3h5.1q-.3-1.2-.9-1.2h-.3a7,7,0,0,0-1.35.15,7,7,0,0,1-1.35.15,3.34,3.34,0,0,0-1.5.3Zm1.2-1.5h2.4v-.6h-2.4Zm.3-2.7q0,.9.6.9Q328.2,218.4,327.6,218.4Z" transform="translate(-144 -128.7)"/></svg>